<svg width="54" height="54" viewBox="0 0 54 54" fill="none" xmlns="http://www.w3.org/2000/svg">
<path opacity="0.4" d="M27 47.25C39.4264 47.25 49.5 37.1764 49.5 24.75C49.5 12.3236 39.4264 2.25 27 2.25C14.5736 2.25 4.5 12.3236 4.5 24.75C4.5 37.1764 14.5736 47.25 27 47.25Z" stroke="#43454F" stroke-width="2" stroke-linecap="round" stroke-linejoin="round"/>
<path opacity="0.4" d="M27 38.25C34.4558 38.25 40.5 32.2058 40.5 24.75C40.5 17.2942 34.4558 11.25 27 11.25C19.5442 11.25 13.5 17.2942 13.5 24.75C13.5 32.2058 19.5442 38.25 27 38.25Z" stroke="#43454F" stroke-width="2" stroke-linecap="round" stroke-linejoin="round"/>
<path d="M19 27C19 22.5817 22.5817 19 27 19C31.4183 19 35 22.5817 35 27V53H19V27Z" fill="white" stroke="#43454F" stroke-width="2"/>
<mask id="path-5-inside-1" fill="white">
<path d="M24.75 27C24.75 25.7574 25.7574 24.75 27 24.75C28.2426 24.75 29.25 25.7574 29.25 27V31.5H24.75V27Z"/>
</mask>
<path d="M24.75 27C24.75 25.7574 25.7574 24.75 27 24.75C28.2426 24.75 29.25 25.7574 29.25 27V31.5H24.75V27Z" fill="white"/>
<path d="M29.25 31.5V36H33.75V31.5H29.25ZM24.75 31.5H20.25V36H24.75V31.5ZM24.75 27V31.5H33.75V27H24.75ZM29.25 27H24.75V36H29.25V27ZM29.25 31.5V27H20.25V31.5H29.25ZM27 29.25C25.7574 29.25 24.75 28.2426 24.75 27H33.75C33.75 23.2721 30.7279 20.25 27 20.25V29.25ZM27 20.25C23.2721 20.25 20.25 23.2721 20.25 27H29.25C29.25 28.2426 28.2426 29.25 27 29.25V20.25Z" fill="#43454F" mask="url(#path-5-inside-1)"/>
</svg>
