<svg width="54" height="54" viewBox="0 0 54 54" fill="none" xmlns="http://www.w3.org/2000/svg">
<path d="M36 4.5H46.5C48.1569 4.5 49.5 5.84315 49.5 7.5V16.875" stroke="#AEB0B6" stroke-width="2" stroke-linecap="round" stroke-linejoin="round"/>
<path d="M18 4.5H7.5C5.84315 4.5 4.5 5.84315 4.5 7.5V16.875" stroke="#AEB0B6" stroke-width="2" stroke-linecap="round" stroke-linejoin="round"/>
<path d="M36 49.5H46.5C48.1569 49.5 49.5 48.1569 49.5 46.5V37.125" stroke="#AEB0B6" stroke-width="2" stroke-linecap="round" stroke-linejoin="round"/>
<path d="M18 49.5H7.5C5.84315 49.5 4.5 48.1569 4.5 46.5V37.125" stroke="#AEB0B6" stroke-width="2" stroke-linecap="round" stroke-linejoin="round"/>
<path d="M18 31.5C18 31.5 21.375 34.875 27 34.875C32.625 34.875 36 31.5 36 31.5" stroke="#43454F" stroke-width="2" stroke-linecap="round" stroke-linejoin="round"/>
<line x1="16.75" y1="20.125" x2="16.75" y2="24.875" stroke="#43454F" stroke-width="2" stroke-linecap="round" stroke-linejoin="round"/>
<line x1="34.75" y1="20.125" x2="34.75" y2="24.875" stroke="#43454F" stroke-width="2" stroke-linecap="round" stroke-linejoin="round"/>
</svg>
