<svg width="54" height="54" viewBox="0 0 54 54" fill="none" xmlns="http://www.w3.org/2000/svg">
<circle opacity="0.4" cx="27.5281" cy="47.5979" r="2.50515" fill="#43454F"/>
<rect opacity="0.4" x="8" y="1" width="38.5" height="52" rx="5.68041" stroke="#43454F" stroke-width="2"/>
<g clip-path="url(#clip0)">
<path d="M37.4742 24.7053C37.7642 24.0207 37.88 23.2749 37.8113 22.5345C37.7426 21.7942 37.4915 21.0825 37.0805 20.4629C36.6696 19.8433 36.1115 19.3352 35.4561 18.984C34.8008 18.6328 34.0687 18.4494 33.3252 18.4503H32.1912C31.8238 17.0035 31.0159 15.7067 29.8791 14.7393C28.7424 13.7719 27.3331 13.1816 25.8462 13.0503M21.6252 13.9503C20.2195 14.7276 19.114 15.9526 18.4847 17.4305C17.8554 18.9084 17.7384 20.5543 18.1523 22.1064C18.5662 23.6585 19.4872 25.0276 20.7688 25.9959C22.0505 26.9642 23.6191 27.4762 25.2252 27.4503H33.3252C33.847 27.4497 34.3647 27.3583 34.8552 27.1803" stroke="#43454F" stroke-width="2" stroke-linecap="round" stroke-linejoin="round"/>
<path d="M18.0249 10.3501L37.8249 30.1501" stroke="#43454F" stroke-width="2" stroke-linecap="round" stroke-linejoin="round"/>
</g>
<defs>
<clipPath id="clip0">
<path d="M17.125 9.4502H38.725V31.0502H17.125V9.4502Z" fill="white"/>
</clipPath>
</defs>
</svg>
