<svg width="54" height="54" viewBox="0 0 54 54" fill="none" xmlns="http://www.w3.org/2000/svg">
<path opacity="0.4" d="M25.6999 3.70506C26.5043 3.24062 27.4955 3.24062 28.2999 3.70506L47.3032 14.6766C48.1076 15.141 48.6032 15.9994 48.6032 16.9283V38.8713C48.6032 39.8002 48.1076 40.6586 47.3032 41.123L28.2999 52.0946C27.4955 52.559 26.5043 52.559 25.6999 52.0946L6.69664 41.123C5.8922 40.6586 5.39664 39.8002 5.39664 38.8713V16.9283C5.39664 15.9994 5.8922 15.141 6.69664 14.6766L25.6999 3.70506Z" stroke="#43454F" stroke-width="2"/>
<path d="M33.8906 35.8594C34.9779 35.8594 35.8594 34.9779 35.8594 33.8906V33.8906C35.8594 32.8463 35.3927 31.8448 34.562 31.1064C33.7312 30.368 32.6045 29.9531 31.4297 29.9531H22.5703C21.3955 29.9531 20.2688 30.368 19.4381 31.1064C18.6073 31.8448 18.1406 32.8463 18.1406 33.8906V33.8906" stroke="#43454F" stroke-width="2" stroke-linecap="round" stroke-linejoin="round"/>
<path d="M27 26.0156C29.1746 26.0156 30.9375 24.2527 30.9375 22.0781C30.9375 19.9035 29.1746 18.1406 27 18.1406C24.8254 18.1406 23.0625 19.9035 23.0625 22.0781C23.0625 24.2527 24.8254 26.0156 27 26.0156Z" stroke="#43454F" stroke-width="2" stroke-linecap="round" stroke-linejoin="round"/>
</svg>
