<svg width="54" height="54" viewBox="0 0 54 54" fill="none" xmlns="http://www.w3.org/2000/svg">
<path opacity="0.4" d="M25.6999 3.70506C26.5043 3.24062 27.4955 3.24062 28.2999 3.70506L47.3032 14.6766C48.1076 15.141 48.6032 15.9994 48.6032 16.9283V38.8713C48.6032 39.8002 48.1076 40.6586 47.3032 41.123L28.2999 52.0946C27.4955 52.559 26.5043 52.559 25.6999 52.0946L6.69664 41.123C5.8922 40.6586 5.39664 39.8002 5.39664 38.8713V16.9283C5.39664 15.9994 5.8922 15.141 6.69664 14.6766L25.6999 3.70506Z" stroke="#43454F" stroke-width="2"/>
<path d="M33.8906 26.0156H20.1094C19.0221 26.0156 18.1406 26.8971 18.1406 27.9844V34.875C18.1406 35.9623 19.0221 36.8438 20.1094 36.8438H33.8906C34.9779 36.8438 35.8594 35.9623 35.8594 34.875V27.9844C35.8594 26.8971 34.9779 26.0156 33.8906 26.0156Z" stroke="#43454F" stroke-width="2" stroke-linecap="round" stroke-linejoin="round"/>
<path d="M22.0781 26.0156V22.0781C22.0781 20.7728 22.5967 19.5209 23.5197 18.5978C24.4427 17.6748 25.6946 17.1562 27 17.1562C28.3054 17.1562 29.5573 17.6748 30.4803 18.5978C31.4033 19.5209 31.9219 20.7728 31.9219 22.0781V26.0156" stroke="#43454F" stroke-width="2" stroke-linecap="round" stroke-linejoin="round"/>
</svg>
