<svg width="80" height="80" viewBox="0 0 80 80" fill="none" xmlns="http://www.w3.org/2000/svg">
<circle cx="40" cy="40" r="40" fill="url(#paint0_linear)"/>
<path d="M55.9829 40.4551C55.9829 41.233 55.9294 41.9975 55.8221 42.7352H29.2392V38.108H55.8353C55.9294 38.8323 55.9829 39.5833 55.9829 40.3478V40.4551ZM40.2773 55.3426H29.2392V47.1477H54.5211C52.147 52.0566 47.0906 55.3426 40.2773 55.3426ZM29.2392 25.3397H40.2773C47.1174 25.3397 52.2008 28.7061 54.5479 33.6954H29.2392V25.3397ZM64.0705 33.6954H59.2957C56.667 26.4126 49.5987 21.3965 40.2773 21.3965H24.9473V33.6954H19.6226V38.108H24.9473V42.7352H19.6226V47.1477H24.9473V59.2992H40.2773C49.4915 59.2992 56.5059 54.3367 59.2018 47.1477H64.0705V42.7352H60.2748C60.3686 41.9573 60.4089 41.1526 60.4089 40.3478V40.2405C60.4089 39.5163 60.3686 38.8054 60.3016 38.108H64.0705V33.6954Z" fill="white"/>
<defs>
<linearGradient id="paint0_linear" x1="21.5094" y1="5.66038" x2="58.8679" y2="74.3396" gradientUnits="userSpaceOnUse">
<stop stop-color="#F9AC14"/>
<stop offset="1" stop-color="#FBC752"/>
</linearGradient>
</defs>
</svg>
