<svg width="80" height="80" viewBox="0 0 80 80" fill="none" xmlns="http://www.w3.org/2000/svg">
<circle cx="40" cy="40" r="40" fill="#1C61ED"/>
<path d="M27.8398 23.04H34.2398V43.2C30.7052 43.2 27.8398 40.3347 27.8398 36.8V23.04Z" fill="white"/>
<path d="M27.8398 36.7998H45.7598C49.2945 36.7998 52.1598 39.6652 52.1598 43.1998H34.2398C30.7052 43.1998 27.8398 40.3344 27.8398 36.7998Z" fill="white"/>
<path d="M45.7598 36.7998C49.2944 36.7998 52.1598 39.6652 52.1598 43.1998V56.6398H45.7598V36.7998Z" fill="white"/>
<path d="M45.7598 23.04H52.1598V33.6C48.6251 33.6 45.7598 30.7347 45.7598 27.2V23.04Z" fill="white"/>
<path d="M27.8398 46.0801C31.3745 46.0801 34.2398 48.9455 34.2398 52.4801V56.6401H27.8398V46.0801Z" fill="white"/>
<path fill-rule="evenodd" clip-rule="evenodd" d="M37.1202 36.7954C37.0741 36.798 37.0277 36.7996 36.9811 36.7999H37.1202V36.7954ZM36.9394 36.7999H34.2402V33.9199H34.2449C34.2418 33.9729 34.2402 34.0263 34.2402 34.08C34.2402 35.5753 35.4468 36.7887 36.9394 36.7999Z" fill="white"/>
<path fill-rule="evenodd" clip-rule="evenodd" d="M42.8798 43.2046C42.9259 43.202 42.9723 43.2004 43.0189 43.2001H42.8798V43.2046ZM43.0606 43.2001H45.7598V46.0801H45.7551C45.7582 46.0271 45.7598 45.9737 45.7598 45.92C45.7598 44.4247 44.5532 43.2113 43.0606 43.2001Z" fill="white"/>
</svg>
