<svg width="80" height="80" viewBox="0 0 80 80" fill="none" xmlns="http://www.w3.org/2000/svg">
<path d="M40 80C18 80 0 62 0 40C0 18 18 0 40 0C62 0 80 18 80 40C80 62 62 80 40 80Z" fill="#002868"/>
<path d="M60.16 64H19.84C17.728 64 16 62.272 16 60.16V19.84C16 17.728 17.728 16 19.84 16H60.16C62.272 16 64 17.728 64 19.84V60.16C64 62.272 62.272 64 60.16 64Z" fill="white"/>
<path d="M25.3666 59.1677C25.2402 59.1677 25.1378 59.0525 25.1378 58.9261V52.4765C25.1378 52.3501 25.0354 52.2349 24.909 52.2349H22.6322C22.5042 52.2349 22.3906 52.1325 22.3906 52.0061V50.7597C22.3906 50.6333 22.5058 50.5181 22.6322 50.5181H29.6402C29.7666 50.5181 29.8818 50.6317 29.8818 50.7597V52.0061C29.8818 52.1325 29.7666 52.2349 29.6402 52.2349H27.3762C27.2498 52.2349 27.1346 52.3485 27.1346 52.4765V58.9261C27.1346 59.0525 27.0322 59.1677 26.9058 59.1677H25.3666Z" fill="#002868"/>
<path d="M36.8772 50.7597C36.8772 50.6333 36.9796 50.5181 37.106 50.5181H38.6324C38.7588 50.5181 38.874 50.6317 38.874 50.7597V55.1613C38.874 57.7693 37.3988 59.2829 35.058 59.2829C32.73 59.2829 31.2676 57.7693 31.2676 55.1613V50.7597C31.2676 50.6333 31.37 50.5181 31.4964 50.5181H33.0228C33.1492 50.5181 33.2644 50.6317 33.2644 50.7597V55.2237C33.2644 56.5085 33.9252 57.4237 35.0708 57.4237C36.2164 57.4237 36.8772 56.5085 36.8772 55.2237V50.7597Z" fill="#002868"/>
<path d="M45.8833 53.3423C45.6801 53.3423 45.6161 53.2655 45.5393 53.1135C45.2721 52.4895 44.6865 52.0959 43.7969 52.0959C42.9953 52.0959 42.3217 52.3759 42.3217 52.9103C42.3217 53.4959 42.9457 53.7375 44.3185 53.9023C46.4049 54.1439 47.6002 54.7807 47.6002 56.4335C47.6002 58.2911 45.9713 59.2703 43.8865 59.2703C42.0801 59.2703 40.5281 58.3919 40.2865 56.5487C40.2609 56.3711 40.3505 56.3071 40.5281 56.3071H41.9281C42.1057 56.3071 42.2081 56.3839 42.2593 56.5231C42.4497 57.1343 43.0993 57.6047 44.0401 57.6047C44.8673 57.6047 45.5921 57.2991 45.5921 56.6511C45.5921 55.8751 44.8289 55.7359 43.3025 55.5439C41.5473 55.3151 40.3265 54.8063 40.3265 53.1903C40.3265 51.5743 41.7137 50.4175 43.8881 50.4175C45.8465 50.4175 47.2081 51.4735 47.4881 53.0511C47.5265 53.2287 47.4754 53.3439 47.285 53.3439H45.8833V53.3423Z" fill="#002868"/>
<path d="M49.3299 59.1677C49.2035 59.1677 49.1011 59.0525 49.1011 58.9261V50.7597C49.1011 50.6333 49.2035 50.5181 49.3299 50.5181H52.7891C55.3587 50.5181 57.3555 52.2861 57.3555 54.8685C57.3555 57.4125 55.3843 59.1677 52.7891 59.1677H49.3299ZM52.7891 57.4493C54.1763 57.4493 55.2563 56.3549 55.2563 54.8413C55.2563 53.3277 54.1747 52.2333 52.7763 52.2333H51.3395C51.2131 52.2333 51.1107 52.3469 51.1107 52.4749V57.2189C51.1107 57.3453 51.2131 57.4477 51.3395 57.4477H52.7891V57.4493Z" fill="#002868"/>
<path d="M62.7202 45.7601H17.2801C16.9281 45.7601 16.6401 45.4721 16.6401 45.1201V19.8401C16.6401 18.0801 18.0801 16.6401 19.8401 16.6401H60.1602C61.9202 16.6401 63.3602 18.0801 63.3602 19.8401V45.1201C63.3602 45.4721 63.0722 45.7601 62.7202 45.7601Z" fill="#002868"/>
<path d="M42.3568 40.5698H38.1968C37.9328 40.5698 37.7168 40.3538 37.7168 40.0898V22.4898C37.7168 22.2258 37.9328 22.0098 38.1968 22.0098H42.3568C42.6208 22.0098 42.8368 22.2258 42.8368 22.4898V40.0898C42.8368 40.3538 42.6208 40.5698 42.3568 40.5698Z" fill="white"/>
<path d="M49.4401 27.1298H30.5601C30.2961 27.1298 30.0801 26.9138 30.0801 26.6498V22.4898C30.0801 22.2258 30.2961 22.0098 30.5601 22.0098H49.4401C49.7041 22.0098 49.9201 22.2258 49.9201 22.4898V26.6498C49.9201 26.9138 49.7041 27.1298 49.4401 27.1298Z" fill="white"/>
</svg>
