<svg width="80" height="80" viewBox="0 0 80 80" fill="none" xmlns="http://www.w3.org/2000/svg">
<path d="M40 80C62.0914 80 80 62.0914 80 40C80 17.9086 62.0914 0 40 0C17.9086 0 0 17.9086 0 40C0 62.0914 17.9086 80 40 80Z" fill="#2775CA"/>
<path d="M32.5 67.8126C32.5 68.7501 31.75 69.2813 30.875 69.0001C18.75 65.1251 10 53.8126 10 40.4063C10 27.0313 18.75 15.6876 30.875 11.8126C31.7813 11.5313 32.5 12.0626 32.5 13.0001V15.3438C32.5 15.9688 32.0312 16.6876 31.4375 16.9063C21.8437 20.4376 15 29.6563 15 40.4063C15 51.1876 21.8437 60.3751 31.4375 63.8751C32.0312 64.0938 32.5 64.8126 32.5 65.4376V67.8126Z" fill="white"/>
<path d="M42.4999 59.1562C42.4999 59.8438 41.9374 60.4062 41.2499 60.4062H38.7499C38.0624 60.4062 37.4999 59.8438 37.4999 59.1562V55.2188C32.0311 54.4687 29.3749 51.4375 28.6561 47.25C28.5311 46.5312 29.0936 45.9062 29.8124 45.9062H32.6561C33.2499 45.9062 33.7499 46.3438 33.8749 46.9062C34.4061 49.375 35.8436 51.2812 40.2186 51.2812C43.4374 51.2812 45.7499 49.4687 45.7499 46.7812C45.7499 44.0937 44.4061 43.0625 39.6561 42.2812C32.6561 41.3438 29.3436 39.2188 29.3436 33.75C29.3436 29.5312 32.5624 26.2187 37.4999 25.5312V21.6562C37.4999 20.9688 38.0624 20.4062 38.7499 20.4062H41.2499C41.9374 20.4062 42.4999 20.9688 42.4999 21.6562V25.625C46.5311 26.3437 49.0936 28.625 49.9374 32.4375C50.0936 33.1562 49.5311 33.8125 48.7811 33.8125H46.1561C45.5936 33.8125 45.1249 33.4375 44.9686 32.9062C44.2499 30.5 42.5311 29.4375 39.5311 29.4375C36.2186 29.4375 34.4999 31.0312 34.4999 33.2812C34.4999 35.6562 35.4686 36.8437 40.5624 37.5625C47.4374 38.5 50.9999 40.4687 50.9999 46.3125C50.9999 50.75 47.6874 54.3438 42.5311 55.1562V59.1562H42.4999Z" fill="white"/>
<path d="M49.125 69.0001C48.2187 69.2813 47.5 68.7501 47.5 67.8126V65.4688C47.5 64.7813 47.9062 64.1251 48.5625 63.9063C58.125 60.4063 65 51.1876 65 40.4376C65 29.6563 58.1562 20.4688 48.5625 16.9688C47.9687 16.7501 47.5 16.0313 47.5 15.4063V13.0626C47.5 12.1251 48.25 11.5938 49.125 11.8751C61.25 15.6876 70 27.0313 70 40.4063C70 53.8126 61.25 65.1251 49.125 69.0001Z" fill="white"/>
</svg>
