<svg width="80" height="80" viewBox="0 0 80 80" fill="none" xmlns="http://www.w3.org/2000/svg">
<circle cx="40" cy="40" r="40" fill="#53B395"/>
<rect x="24.0371" y="24.0962" width="32.3665" height="8.09163" fill="white"/>
<rect x="36.4126" y="43.1353" width="18.5631" height="8.09163" transform="rotate(-90 36.4126 43.1353)" fill="white"/>
<rect x="36.4126" y="62.6504" width="18.5631" height="8.09163" transform="rotate(-90 36.4126 62.6504)" fill="white"/>
<path fill-rule="evenodd" clip-rule="evenodd" d="M39.7444 46.4672C51.048 46.4672 60.2114 44.2296 60.2114 41.4694C60.2114 38.7093 51.048 36.4717 39.7444 36.4717C28.4408 36.4717 19.2773 38.7093 19.2773 41.4694C19.2773 44.2296 28.4408 46.4672 39.7444 46.4672ZM39.9824 44.5633C50.366 44.5633 58.7835 42.965 58.7835 40.9935C58.7835 39.0219 50.366 37.4236 39.9824 37.4236C29.5988 37.4236 21.1813 39.0219 21.1813 40.9935C21.1813 42.965 29.5988 44.5633 39.9824 44.5633Z" fill="white"/>
</svg>
