<svg width="80" height="80" viewBox="0 0 80 80" fill="none" xmlns="http://www.w3.org/2000/svg">
<path d="M40 80C62.0914 80 80 62.0914 80 40C80 17.9086 62.0914 0 40 0C17.9086 0 0 17.9086 0 40C0 62.0914 17.9086 80 40 80Z" fill="white"/>
<path d="M79.5 40C79.5 61.8152 61.8152 79.5 40 79.5C18.1848 79.5 0.5 61.8152 0.5 40C0.5 18.1848 18.1848 0.5 40 0.5C61.8152 0.5 79.5 18.1848 79.5 40Z" stroke="black" stroke-opacity="0.1"/>
<path fill-rule="evenodd" clip-rule="evenodd" d="M42.13 61.4154L42.13 61.4252H25.8314C23.5576 61.4252 21.7144 59.5819 21.7144 57.3081V22.2303C21.7144 19.9717 23.5338 18.1347 25.7923 18.1133H41.804L42.9645 18.1133C50.6996 18.1133 57.8472 22.2399 61.7148 28.9388C65.5824 35.6377 65.5824 43.891 61.7148 50.5899C57.8472 57.2887 50.6996 61.4154 42.9645 61.4154H42.13Z" fill="white"/>
<path fill-rule="evenodd" clip-rule="evenodd" d="M42.9647 18.1133H41.5174V28.0293C44.3533 28.0978 47.1893 27.9022 49.0375 28.1174L48.9202 33.9849C48.9202 33.9849 43.0527 34.2978 40.6861 34.3271C38.8477 34.3271 39.5518 35.3735 40.3243 35.5202C42.5973 36.0011 44.8301 36.655 47.0035 37.476C48.4801 38.1899 49.3994 38.7571 49.8688 42.2482C50.3382 45.7394 49.0864 50.8246 41.8792 50.9615H41.5174V61.4154H42.9647C50.6999 61.4154 57.8475 57.2887 61.7151 50.5899C65.5827 43.891 65.5827 35.6377 61.7151 28.9388C57.8475 22.2399 50.6999 18.1133 42.9647 18.1133Z" fill="#0E0C27"/>
<path fill-rule="evenodd" clip-rule="evenodd" d="M31.8553 50.5508L32.09 44.5855C35.1113 44.7284 38.1383 44.6925 41.1553 44.4779C42.7004 44.2628 41.8692 43.5 41.8692 43.5C41.8692 43.5 36.52 42.5221 34.7109 41.5441C32.9017 40.5662 30.7992 38.718 31.9629 32.5669C32.5497 29.3984 35.8061 28.1565 39.4831 27.9805V18.1133H25.7923C23.5338 18.1347 21.7144 19.9717 21.7144 22.2303V57.3081C21.7144 59.5819 23.5576 61.4252 25.8314 61.4252H39.5222V50.9126C34.1632 50.7463 31.8553 50.5508 31.8553 50.5508Z" fill="#0E0C27"/>
</svg>
