<svg width="270" height="270" viewBox="0 0 270 270" fill="none" xmlns="http://www.w3.org/2000/svg">
<mask id="mask0" mask-type="alpha" maskUnits="userSpaceOnUse" x="3" y="3" width="265" height="265">
<path d="M135.5 268C208.678 268 268 208.678 268 135.5C268 62.3223 208.678 3 135.5 3C62.3223 3 3 62.3223 3 135.5C3 208.678 62.3223 268 135.5 268Z" fill="white"/>
</mask>
<g mask="url(#mask0)">
<path d="M267.5 135.5C267.5 208.402 208.402 267.5 135.5 267.5C62.5984 267.5 3.5 208.402 3.5 135.5C3.5 62.5984 62.5984 3.5 135.5 3.5C208.402 3.5 267.5 62.5984 267.5 135.5Z" fill="white" stroke="#DDDFEB"/>
<path d="M216.5 136C216.5 179.354 181.354 214.5 138 214.5C94.6456 214.5 59.5 179.354 59.5 136C59.5 92.6456 94.6456 57.5 138 57.5C181.354 57.5 216.5 92.6456 216.5 136Z" fill="#F6F8FB" stroke="#DDDFEB"/>
<path d="M139.5 168C140.691 168 141.552 167.311 142.082 166.697C142.622 166.07 143.052 165.263 143.406 164.413C144.123 162.695 144.724 160.332 145.213 157.561C146.197 151.986 146.794 144.364 146.794 136C146.794 127.636 146.197 120.014 145.213 114.439C144.724 111.668 144.123 109.305 143.406 107.587C143.052 106.737 142.622 105.93 142.082 105.303C141.552 104.689 140.691 104 139.5 104C138.309 104 137.448 104.689 136.918 105.303C136.378 105.93 135.948 106.737 135.593 107.587C134.877 109.305 134.276 111.668 133.787 114.439C132.803 120.014 132.206 127.636 132.206 136C132.206 144.364 132.803 151.986 133.787 157.561C134.276 160.332 134.877 162.695 135.593 164.413C135.948 165.263 136.378 166.07 136.918 166.697C137.448 167.311 138.309 168 139.5 168Z" stroke="#DDDFEB" stroke-width="4"/>
<path d="M113.16 154.172C113.862 155.118 114.919 155.408 115.716 155.483C116.54 155.561 117.449 155.451 118.358 155.255C120.192 154.86 122.493 154.007 125.069 152.831C130.247 150.466 136.885 146.632 143.781 141.898C150.676 137.164 156.605 132.37 160.618 128.423C162.612 126.462 164.206 124.639 165.2 123.085C165.691 122.317 166.107 121.506 166.306 120.701C166.503 119.905 166.557 118.796 165.84 117.828C165.138 116.882 164.081 116.592 163.283 116.517C162.46 116.439 161.551 116.549 160.642 116.745C158.808 117.14 156.507 117.993 153.931 119.169C148.753 121.534 142.115 125.368 135.219 130.102C128.324 134.836 122.395 139.63 118.382 143.577C116.388 145.538 114.794 147.361 113.8 148.915C113.309 149.683 112.893 150.494 112.694 151.299C112.497 152.095 112.443 153.204 113.16 154.172Z" stroke="#DDDFEB" stroke-width="4"/>
<path d="M165.839 154.173C166.556 153.205 166.502 152.096 166.305 151.3C166.106 150.495 165.69 149.684 165.198 148.916C164.205 147.362 162.61 145.539 160.616 143.577C156.604 139.63 150.675 134.836 143.78 130.102C136.885 125.367 130.247 121.533 125.069 119.168C122.494 117.992 120.193 117.138 118.358 116.743C117.45 116.547 116.54 116.438 115.717 116.515C114.919 116.591 113.862 116.881 113.161 117.827C112.444 118.795 112.498 119.904 112.695 120.7C112.894 121.505 113.31 122.316 113.802 123.084C114.795 124.638 116.39 126.461 118.384 128.423C122.396 132.37 128.325 137.164 135.22 141.899C142.115 146.633 148.753 150.468 153.931 152.833C156.506 154.009 158.807 154.862 160.642 155.257C161.55 155.453 162.46 155.563 163.283 155.485C164.081 155.41 165.138 155.119 165.839 154.173Z" stroke="#DDDFEB" stroke-width="4"/>
<path fill-rule="evenodd" clip-rule="evenodd" d="M-37.3837 248.676C25.2722 248.676 14.6825 202.525 50.864 202.525C87.0456 202.525 92.3405 252.631 152.349 252.631C212.357 252.631 222.065 184.064 252.951 184.064C283.838 184.064 287.368 245.379 314.725 245.379V267.136L-37.3837 267.136V248.676Z" fill="url(#paint0_linear)"/>
<path opacity="0.844566" fill-rule="evenodd" clip-rule="evenodd" d="M253.06 267.764C253.06 269.385 265.5 223.534 265.5 180.5C265.5 173 259.5 162.693 253.06 162.693C231.88 162.693 232.763 239.454 193.934 239.454C155.105 239.454 148.927 170.918 128.63 170.918C108.333 170.918 110.098 208.384 96.8611 208.384C83.6239 208.384 81.8809 116.978 61.5839 116.978C41.2869 116.978 36.8526 226.66 17.4381 226.66C-1.97639 226.66 -7.27126 195.591 -27.5682 195.591C-47.8652 195.591 -53.1601 254.075 -79.6344 254.075L-78.7519 267.764" fill="url(#paint1_linear)"/>
</g>
<circle cx="62" cy="116" r="4" fill="#3B37DE" stroke="white" stroke-width="2"/>
<path fill-rule="evenodd" clip-rule="evenodd" d="M79 102C88.9411 102 97 93.9411 97 84C97 74.0589 88.9411 66 79 66C69.0589 66 61 74.0589 61 84C61 93.9411 69.0589 102 79 102Z" fill="#0994C0"/>
<path fill-rule="evenodd" clip-rule="evenodd" d="M88.9524 78.4746C89.5831 87.3046 83.833 91.4964 78.6868 91.958C73.9029 92.3869 69.4095 89.4946 69.0291 85.0269C68.7138 81.3374 71.0253 79.7588 72.837 79.5965C74.7003 79.4293 76.2621 80.6957 76.3934 82.2344C76.5199 83.714 75.5845 84.3905 74.9349 84.4486C74.4224 84.4946 73.7768 84.1873 73.7204 83.5262C73.6719 82.9568 73.8911 82.8801 73.8386 82.2743C73.7468 81.1985 72.7996 81.0758 72.28 81.1226C71.6493 81.1791 70.5089 81.9081 70.6638 83.714C70.8195 85.5366 72.5816 86.971 74.8978 86.7634C77.397 86.5393 79.1433 84.6097 79.282 81.9089C79.2817 81.7655 79.3128 81.6239 79.3731 81.4945C79.3731 81.4945 79.3731 81.4917 79.3731 81.4905C79.3988 81.4368 79.4284 81.3852 79.4618 81.3362C79.4618 81.3338 79.4642 81.331 79.4673 81.3282C79.5308 81.2351 79.6013 81.1474 79.6782 81.0657C79.6782 81.0632 79.6782 81.0632 79.6806 81.0632C79.7455 80.9911 79.8223 80.9133 79.9112 80.8298C81.0051 79.8077 84.9442 77.3923 88.6599 78.1419C88.6891 78.148 88.7175 78.1575 88.7446 78.1701C88.8618 78.2255 88.9407 78.3413 88.9512 78.473" fill="white"/>
<defs>
<linearGradient id="paint0_linear" x1="138.671" y1="267.136" x2="138.671" y2="188.232" gradientUnits="userSpaceOnUse">
<stop stop-color="#3151D6"/>
<stop offset="1" stop-color="#0EB1CA"/>
</linearGradient>
<linearGradient id="paint1_linear" x1="86.7126" y1="116.978" x2="86.7126" y2="267.803" gradientUnits="userSpaceOnUse">
<stop stop-color="#8BECF5"/>
<stop offset="0.984903" stop-color="#0EB1CA"/>
</linearGradient>
</defs>
</svg>
