<svg width="28" height="28" viewBox="0 0 28 28" fill="none" xmlns="http://www.w3.org/2000/svg">
<path fill-rule="evenodd" clip-rule="evenodd" d="M16.2581 11.151C16.0598 11.3523 16.0598 11.6787 16.2581 11.88L17.4227 13.0618H11.5397C10.1371 13.0618 9 14.2157 9 15.6391V16.6701C9 16.9547 9.22741 17.1855 9.50794 17.1855C9.78846 17.1855 10.0159 16.9547 10.0159 16.6701V15.6391C10.0159 14.7851 10.6981 14.0927 11.5397 14.0927H17.4229L16.2581 15.2747C16.0598 15.476 16.0598 15.8024 16.2581 16.0037C16.4565 16.205 16.7781 16.205 16.9765 16.0037L18.9849 13.9655C19.0914 13.871 19.1587 13.7321 19.1587 13.5772C19.1587 13.4215 19.0907 13.282 18.9832 13.1875L16.9765 11.151C16.7781 10.9497 16.4565 10.9497 16.2581 11.151Z" fill="#3151D6"/>
</svg>
