<svg width="161" height="30" viewBox="0 0 161 30" fill="none" xmlns="http://www.w3.org/2000/svg">
<path fill-rule="evenodd" clip-rule="evenodd" d="M18.4705 21.5893L16.2833 19.3743C15.4525 20.1494 14.6127 20.7635 13.7632 21.2158C12.9145 21.6678 11.8991 21.8937 10.7179 21.8937C9.79481 21.8937 8.94121 21.7141 8.15672 21.354C7.37223 20.9939 6.69383 20.5005 6.12152 19.8726C5.54922 19.2451 5.10654 18.5115 4.79237 17.6718C4.47858 16.8321 4.32205 15.9319 4.32205 14.9727C4.32205 14.0128 4.47858 13.1175 4.79237 12.2867C5.10654 11.4564 5.54922 10.7321 6.12152 10.1136C6.69383 9.49541 7.37223 9.00647 8.15672 8.64639C8.94121 8.28669 9.79481 8.10665 10.7179 8.10665C11.8252 8.10665 12.8129 8.32815 13.6803 8.77115C14.5481 9.21377 15.3696 9.79534 16.1443 10.5151L18.3319 7.99609C17.8706 7.55309 17.3816 7.14707 16.8646 6.77766C16.3479 6.40862 15.785 6.09 15.1757 5.82256C14.5664 5.55475 13.8973 5.34744 13.1681 5.1999C12.4389 5.05198 11.6313 4.97803 10.7455 4.97803C9.26883 4.97803 7.92137 5.24136 6.70317 5.76728C5.48459 6.2932 4.43263 7.01298 3.54652 7.92661C2.66042 8.84025 1.97306 9.90591 1.48369 11.1243C0.994313 12.3424 0.75 13.6437 0.75 15.028C0.75 16.4306 0.999169 17.7409 1.49751 18.9593C1.99585 20.177 2.68358 21.2337 3.56035 22.1291C4.43711 23.024 5.47525 23.73 6.67515 24.2469C7.87505 24.7639 9.1859 25.022 10.6069 25.022C11.5117 25.022 12.3377 24.9435 13.0852 24.7867C13.8327 24.6298 14.5204 24.3993 15.148 24.0949C15.7756 23.7901 16.3618 23.43 16.9064 23.015C17.4507 22.5997 17.9722 22.1242 18.4705 21.5893Z" fill="white"/>
<path fill-rule="evenodd" clip-rule="evenodd" d="M62.4056 10.4658C62.4056 9.82105 62.6809 9.27323 63.2319 8.8223C63.7825 8.37063 64.5538 8.14517 65.5451 8.14517C66.4263 8.14517 67.2983 8.31585 68.161 8.65647C69.0241 8.99708 69.8961 9.48975 70.777 10.1341L72.5946 7.5653C71.6037 6.77338 70.5433 6.17041 69.4142 5.75637C68.2848 5.34197 67.0137 5.13477 65.6 5.13477C64.6456 5.13477 63.7643 5.26818 62.961 5.53538C62.1533 5.80221 61.4652 6.1842 60.8912 6.68133C60.3176 7.17884 59.8676 7.7725 59.5373 8.46305C59.2115 9.1536 59.0462 9.92242 59.0462 10.7695C59.0462 11.6717 59.1885 12.4361 59.4731 13.0621C59.7577 13.6882 60.1753 14.2222 60.717 14.6642C61.2583 15.1062 61.933 15.4744 62.7314 15.7692C63.5347 16.064 64.4483 16.3304 65.4808 16.57C66.3806 16.791 67.11 17.0027 67.6747 17.2051C68.2346 17.4078 68.6752 17.6243 69.0011 17.8543C69.3221 18.0846 69.5428 18.3376 69.662 18.6138C69.7813 18.8903 69.8407 19.2029 69.8407 19.5529C69.8407 20.3083 69.5335 20.9068 68.9186 21.3484C68.3033 21.7907 67.4726 22.0114 66.4263 22.0114C65.2148 22.0114 64.1314 21.7948 63.1769 21.3622C62.2221 20.9295 61.2769 20.3083 60.3402 19.4977L58.3027 21.9286C59.4593 22.9781 60.717 23.7562 62.0753 24.2626C63.434 24.7691 64.8566 25.0221 66.3435 25.0221C67.3533 25.0221 68.2807 24.8932 69.1252 24.6357C69.9648 24.3774 70.6901 23.9999 71.2868 23.5028C71.8879 23.0056 72.356 22.3982 72.6956 21.6801C73.0307 20.9619 73.2005 20.1424 73.2005 19.2216C73.2005 18.4114 73.0675 17.7071 72.8011 17.1085C72.5347 16.51 72.1402 15.9857 71.6263 15.534C71.1121 15.0831 70.4605 14.7007 69.6802 14.3877C68.9004 14.075 68.0005 13.7896 66.9907 13.5317C66.0682 13.3107 65.311 13.0987 64.7099 12.8963C64.1132 12.6939 63.645 12.4729 63.3006 12.2333C62.961 11.9941 62.7273 11.7362 62.5984 11.46C62.4702 11.1835 62.4056 10.8522 62.4056 10.4658Z" fill="white"/>
<path fill-rule="evenodd" clip-rule="evenodd" d="M100.102 10.7391V24.552H103.466V5.29102H99.8531L93.9786 14.3988L88.104 5.29102H84.4912V24.552H87.8558V10.794L93.8956 19.8194H94.0061L100.102 10.7391Z" fill="white"/>
<path d="M131.736 15.028C131.736 15.9693 131.575 16.8598 131.252 17.6998C130.93 18.5395 130.483 19.2682 129.912 19.8864C129.341 20.5046 128.655 20.9939 127.853 21.354C127.052 21.7141 126.172 21.8937 125.214 21.8937C124.256 21.8937 123.371 21.7092 122.561 21.3402C121.75 20.9708 121.054 20.4725 120.474 19.8453C119.894 19.2174 119.442 18.4838 119.12 17.6442C118.798 16.8045 118.636 15.9136 118.636 14.9727C118.636 14.0311 118.798 13.1406 119.12 12.3009C119.442 11.4609 119.889 10.7321 120.46 10.1136C121.032 9.49541 121.718 9.00647 122.519 8.64639C123.321 8.28669 124.201 8.10665 125.159 8.10665C126.117 8.10665 127.001 8.29117 127.812 8.66058C128.622 9.02962 129.318 9.5279 129.898 10.1554C130.479 10.7826 130.93 11.5165 131.252 12.3562C131.575 13.1959 131.736 14.0867 131.736 15.028ZM135.301 14.9727C135.301 13.6068 135.052 12.3148 134.555 11.0963C134.058 9.87864 133.366 8.81709 132.482 7.91279C131.598 7.00812 130.539 6.2932 129.304 5.76728C128.07 5.24136 126.706 4.97803 125.214 4.97803C123.721 4.97803 122.358 5.24584 121.124 5.7811C119.889 6.31636 118.82 7.04062 117.918 7.95425C117.015 8.86789 116.315 9.93392 115.817 11.152C115.32 12.37 115.071 13.662 115.071 15.028C115.071 16.3936 115.32 17.6853 115.817 18.9037C116.315 20.1221 117.006 21.1833 117.89 22.0876C118.774 22.9919 119.834 23.7072 121.069 24.2331C122.303 24.759 123.666 25.022 125.159 25.022C126.651 25.022 128.014 24.7542 129.249 24.2193C130.483 23.684 131.552 22.9598 132.455 22.0458C133.358 21.1325 134.058 20.0665 134.555 18.8484C135.052 17.6304 135.301 16.3383 135.301 14.9727Z" fill="white"/>
<path fill-rule="evenodd" clip-rule="evenodd" d="M149.44 10.4658C149.44 9.82105 149.715 9.27323 150.266 8.8223C150.817 8.37063 151.588 8.14517 152.579 8.14517C153.46 8.14517 154.333 8.31585 155.195 8.65647C156.058 8.99708 156.93 9.48975 157.812 10.1341L159.629 7.5653C158.637 6.77338 157.577 6.17041 156.448 5.75637C155.319 5.34197 154.048 5.13477 152.634 5.13477C151.68 5.13477 150.798 5.26818 149.995 5.53538C149.187 5.80221 148.499 6.1842 147.925 6.68133C147.352 7.17884 146.902 7.7725 146.571 8.46305C146.246 9.1536 146.08 9.92242 146.08 10.7695C146.08 11.6717 146.223 12.4361 146.507 13.0621C146.792 13.6882 147.209 14.2222 147.751 14.6642C148.292 15.1062 148.967 15.4744 149.766 15.7692C150.569 16.064 151.482 16.3304 152.515 16.57C153.414 16.791 154.144 17.0027 154.709 17.2051C155.268 17.4078 155.709 17.6243 156.035 17.8543C156.356 18.0846 156.577 18.3376 156.696 18.6138C156.815 18.8903 156.875 19.2029 156.875 19.5529C156.875 20.3083 156.567 20.9068 155.953 21.3484C155.338 21.7907 154.507 22.0114 153.46 22.0114C152.249 22.0114 151.165 21.7948 150.211 21.3622C149.257 20.9295 148.311 20.3083 147.374 19.4977L145.337 21.9286C146.493 22.9781 147.751 23.7562 149.109 24.2626C150.468 24.7691 151.89 25.0221 153.378 25.0221C154.387 25.0221 155.314 24.8932 156.159 24.6357C156.999 24.3774 157.724 23.9999 158.321 23.5028C158.922 23.0056 159.39 22.3982 159.73 21.6801C160.065 20.9619 160.235 20.1424 160.235 19.2216C160.235 18.4114 160.101 17.7071 159.835 17.1085C159.569 16.51 159.174 15.9857 158.66 15.534C158.146 15.0831 157.495 14.7007 156.714 14.3877C155.934 14.075 155.034 13.7896 154.025 13.5317C153.102 13.3107 152.345 13.0987 151.744 12.8963C151.147 12.6939 150.679 12.4729 150.335 12.2333C149.995 11.9941 149.761 11.7362 149.633 11.46C149.504 11.1835 149.44 10.8522 149.44 10.4658Z" fill="white"/>
<path d="M41.5519 9.14706L32.3326 18.3535C32.2138 18.1231 32.1064 17.8831 32.0103 17.6342C31.6883 16.7977 31.5273 15.9102 31.5273 14.9728C31.5273 14.0347 31.6883 13.1476 32.0103 12.3111C32.3326 11.4742 32.7791 10.7483 33.35 10.132C33.9208 9.5162 34.6069 9.0291 35.4077 8.67039C36.2089 8.31204 37.088 8.13269 38.0453 8.13269C39.003 8.13269 39.8869 8.31651 40.6967 8.68453C40.9978 8.82109 41.2829 8.97515 41.5519 9.14706ZM40.7384 21.33C39.9372 21.6887 39.0582 21.8677 38.1008 21.8677C37.1431 21.8677 36.2592 21.6839 35.4491 21.3162C35.1483 21.1793 34.8633 21.0252 34.5946 20.8529L43.8135 11.6473C43.9324 11.8772 44.0397 12.1169 44.1359 12.3662C44.4578 13.2027 44.6188 14.0902 44.6188 15.0279C44.6188 15.9656 44.4578 16.8527 44.1359 17.6896C43.8135 18.5261 43.3671 19.2521 42.7962 19.868C42.2253 20.4838 41.5396 20.9713 40.7384 21.33ZM42.1332 24.1844C43.3671 23.6512 44.4351 22.9297 45.3373 22.0191C46.2394 21.1093 46.9389 20.0473 47.436 18.8339C47.9335 17.6204 48.1821 16.3333 48.1821 14.9728C48.1821 13.612 47.9335 12.3249 47.436 11.1111C47.1412 10.3914 46.7783 9.72681 46.3475 9.11692L52.3438 3.12928L49.9611 0.75L43.9465 6.75588C43.4066 6.38823 42.8204 6.07045 42.1884 5.80215C40.9546 5.27822 39.5922 5.01588 38.1008 5.01588C36.6091 5.01588 35.2467 5.28269 34.0129 5.81592C32.7791 6.34916 31.7111 7.07068 30.8089 7.98087C29.9067 8.89105 29.2069 9.95306 28.7098 11.1665C28.2126 12.38 27.9641 13.6671 27.9641 15.0279C27.9641 16.3883 28.2126 17.6751 28.7098 18.8889C29.0049 19.609 29.3678 20.2736 29.7986 20.8838L23.8027 26.8707L26.1854 29.25L32.1996 23.2445C32.7396 23.6121 33.3257 23.9299 33.9577 24.1982C35.1916 24.7221 36.554 24.9841 38.0453 24.9841C39.537 24.9841 40.8994 24.7173 42.1332 24.1844Z" fill="white"/>
</svg>
