<svg width="145" height="145" viewBox="0 0 145 145" fill="none" xmlns="http://www.w3.org/2000/svg">
<circle cx="72.5" cy="72.5" r="72.5" fill="white" fill-opacity="0.1"/>
<g clip-path="url(#clip0)">
<path opacity="0.3" d="M73.3234 121.932C100.624 121.932 122.755 99.8006 122.755 72.5002C122.755 45.1997 100.624 23.0684 73.3234 23.0684C46.023 23.0684 23.8916 45.1997 23.8916 72.5002C23.8916 99.8006 46.023 121.932 73.3234 121.932Z" fill="white"/>
<path d="M73.2053 97.8046C87.2455 97.8046 98.6274 86.4228 98.6274 72.3825C98.6274 58.3423 87.2455 46.9604 73.2053 46.9604C59.1651 46.9604 47.7832 58.3423 47.7832 72.3825C47.7832 86.4228 59.1651 97.8046 73.2053 97.8046Z" fill="#5E78E5"/>
<path d="M73.6211 109.574C77.9838 109.574 81.5205 92.9755 81.5205 72.5001C81.5205 52.0248 77.9838 35.4263 73.6211 35.4263C69.2584 35.4263 65.7217 52.0248 65.7217 72.5001C65.7217 92.9755 69.2584 109.574 73.6211 109.574Z" stroke="#E6F5FF" stroke-width="4"/>
<path d="M43.2516 93.7648C45.754 97.3386 61.3793 90.7151 78.1517 78.971C94.9241 67.2268 106.492 54.8092 103.99 51.2355C101.488 47.6617 85.8623 54.2852 69.0899 66.0293C52.3174 77.7735 40.7493 90.1911 43.2516 93.7648Z" stroke="#E6F5FF" stroke-width="4"/>
<path d="M103.99 93.7646C106.492 90.1909 94.9241 77.7733 78.1517 66.0291C61.3792 54.285 45.754 47.6615 43.2516 51.2352C40.7493 54.809 52.3174 67.2266 69.0898 78.9707C85.8622 90.7149 101.488 97.3384 103.99 93.7646Z" stroke="#E6F5FF" stroke-width="4"/>
</g>
<defs>
<clipPath id="clip0">
<rect x="23.8916" y="23.0684" width="98.8636" height="98.8636" fill="white"/>
</clipPath>
</defs>
</svg>
