<svg width="215" height="46" viewBox="0 0 215 46" fill="none" xmlns="http://www.w3.org/2000/svg">
<path d="M55.8283 10.9429H59.2821V19.0972H68.6538V10.9429H72.1076V30.5608H68.6538V22.2932H59.28V30.5597H55.8262L55.8283 10.9429Z" fill="#777A8C"/>
<path fill-rule="evenodd" clip-rule="evenodd" d="M85.8253 28.738V30.5597L89.1895 30.5619V21.7909C89.1895 17.8372 87.0568 15.5391 82.6791 15.5391C80.2657 15.5391 78.6662 16.0435 77.0386 16.7722L77.9722 19.4885C79.3192 18.928 80.5539 18.5637 82.2096 18.5637C84.5625 18.5637 85.8577 19.6825 85.8577 21.7306V22.0108C84.7028 21.6465 83.5522 21.3943 81.7563 21.3943C78.3057 21.3943 75.751 22.9658 75.751 26.2448V26.3009C75.751 29.2705 78.2204 30.868 81.0267 30.868C83.2716 30.868 84.815 29.9431 85.8253 28.738ZM82.5139 23.7788C83.6719 23.771 84.8219 23.9703 85.9094 24.3673V25.2081C85.9094 27.0578 84.2257 28.3179 81.9807 28.3179C80.3812 28.3179 79.1184 27.5342 79.1184 26.1329V26.0769C79.1184 24.6476 80.3812 23.7788 82.5139 23.7788Z" fill="#777A8C"/>
<path d="M92.0273 28.6256L93.5384 26.3286C95.1379 27.5337 96.8778 28.1492 98.3953 28.1492C99.8545 28.1492 100.696 27.5337 100.696 26.5528V26.4968C100.696 25.3477 99.1249 24.9554 97.3851 24.4229C95.1962 23.8063 92.7548 22.9138 92.7548 20.0789V20.0229C92.7548 17.2203 95.084 15.5107 98.0305 15.5107C99.8826 15.5107 101.903 16.1575 103.475 17.1923L102.128 19.6025C100.696 18.7337 99.181 18.2012 97.9463 18.2012C96.6274 18.2012 95.8697 18.8178 95.8697 19.6866V19.7437C95.8697 20.8087 97.4692 21.2528 99.2091 21.8176C101.368 22.4902 103.811 23.4711 103.811 26.1292V26.1853C103.811 29.2961 101.398 30.8364 98.3068 30.8364C96.2086 30.8397 93.8762 30.083 92.0273 28.6256Z" fill="#777A8C"/>
<path d="M107.265 10.1021H110.66V18.0613C111.614 16.66 112.989 15.4549 115.29 15.4549C118.63 15.4549 120.566 17.697 120.566 21.1441V30.5597H117.171V22.152C117.171 19.8539 116.02 18.5367 114 18.5367C112.035 18.5367 110.66 19.9099 110.66 22.208V30.5586H107.265V10.1021Z" fill="#777A8C"/>
<path fill-rule="evenodd" clip-rule="evenodd" d="M134.429 30.8959C136.73 30.8959 138.751 30.2233 140.406 29.0473L142.769 31.1481L144.981 28.683L142.736 26.7772C144.039 25.0391 144.739 22.9233 144.728 20.7517V20.6957C144.728 15.1746 140.519 10.6064 134.485 10.6064C128.452 10.6064 124.187 15.2307 124.187 20.7517V20.8078C124.187 26.3288 128.396 30.8959 134.429 30.8959ZM134.485 23.9187L137.853 26.7773C136.844 27.4091 135.676 27.7397 134.485 27.7302C130.585 27.7302 127.807 24.5633 127.807 20.7518V20.6958C127.807 16.8843 130.529 13.7734 134.429 13.7734C138.33 13.7734 141.108 16.9403 141.108 20.7518V20.8079C141.108 22.1811 140.771 23.4423 140.098 24.4792L136.702 21.3964L134.485 23.9187Z" fill="#777A8C"/>
<path d="M148.348 25.1798V15.7632H151.743V24.1709C151.743 26.469 152.894 27.7862 154.914 27.7862C156.879 27.7862 158.254 26.4129 158.254 24.1148V15.7632H161.649V30.5596H158.254V28.2594C157.299 29.6606 155.924 30.8657 153.623 30.8657C150.284 30.8679 148.348 28.6259 148.348 25.1798Z" fill="#777A8C"/>
<path fill-rule="evenodd" clip-rule="evenodd" d="M174.98 28.7378V30.5594H178.351V21.7885C178.351 17.8347 176.219 15.5366 171.841 15.5366C169.428 15.5366 167.828 16.0411 166.2 16.7697L167.126 19.4882C168.473 18.9277 169.708 18.5634 171.364 18.5634C173.717 18.5634 175.012 19.6823 175.012 21.7303V22.0105C173.857 21.6462 172.707 21.394 170.911 21.394C167.459 21.394 164.905 22.9656 164.905 26.2446V26.3006C164.905 29.2702 167.375 30.8677 170.181 30.8677C172.426 30.8677 173.969 29.9429 174.98 28.7378ZM171.668 23.7781C172.826 23.7702 173.976 23.9696 175.064 24.3666V25.2074C175.064 27.057 173.38 28.3171 171.135 28.3171C169.536 28.3171 168.273 27.5335 168.273 26.1322V26.0762C168.273 24.6468 169.536 23.7781 171.668 23.7781Z" fill="#777A8C"/>
<path d="M182.388 15.7632H185.782V19.0972C186.708 16.8832 188.42 15.3698 191.03 15.4819V19.0692H190.833C187.859 19.0692 185.782 21.003 185.782 24.9265V30.5586H182.388V15.7632Z" fill="#777A8C"/>
<path d="M193.976 10.1021H197.371V22.3212L203.517 15.7632H207.642L201.749 21.7887L207.838 30.5597H203.91L199.448 24.1709L197.371 26.3267V30.5575H193.976L193.976 10.1021Z" fill="#777A8C"/>
<path d="M42.1408 31.8069C41.9355 32.6448 41.656 33.4628 41.3057 34.2512C39.984 37.2404 37.8703 39.5543 35.2011 41.386C32.8288 43.0196 30.2163 44.1329 27.4412 44.8833C26.6171 45.1072 25.7783 45.2769 24.9419 45.4516C24.7644 45.4709 24.5847 45.4546 24.4135 45.4036C21.8752 44.8843 19.4189 44.0239 17.1117 42.8462C14.8564 41.6775 12.8228 40.2125 11.1181 38.3205C9.11034 36.0927 7.78498 33.518 7.25164 30.546C7.02523 29.2676 6.95122 27.9669 7.03116 26.6711C7.27011 22.7432 8.64597 19.2496 11.1957 16.2469C13.8406 13.1305 17.1701 11.1487 21.1839 10.3016C21.275 10.2819 21.3662 10.261 21.4586 10.2438C21.551 10.2266 21.6286 10.2155 21.7468 10.1958C22.6583 15.5162 24.9284 20.1735 28.631 24.1062C32.3336 28.039 36.848 30.5903 42.1408 31.8069Z" fill="#777A8C"/>
<path d="M42.3134 28.7931C39.311 28.0697 36.4869 26.7447 34.0127 24.8984C35.3443 25.0042 36.6811 25.0301 38.0159 24.9759C39.3573 24.9054 40.692 24.7409 42.0104 24.4839C42.2934 25.9017 42.3952 27.3497 42.3134 28.7931Z" fill="#777A8C"/>
<path d="M39.2369 3.63623L39.5941 3.99297C40.3971 4.79598 40.3971 6.09678 39.5941 6.89979L36.1982 10.2913C35.3941 11.0932 34.0916 11.0932 33.2876 10.2913L29.8917 6.89979C29.0887 6.09678 29.0887 4.79598 29.8917 3.99297L30.2489 3.63623H7.00586V16.6696C11.1482 10.5951 16.946 7.41276 24.3254 6.92932L24.3427 7.05233C24.4806 8.11886 24.5693 9.19523 24.7639 10.2507C25.4752 14.1597 27.1807 17.8205 29.7168 20.8816C29.8022 20.9806 29.9141 21.0531 30.0395 21.0907C31.5989 21.5556 33.2027 21.8562 34.8248 21.9875C37.3334 22.1892 39.8583 21.9924 42.3052 21.4044H42.3138V3.63623H39.2369Z" fill="#777A8C"/>
<path fill-rule="evenodd" clip-rule="evenodd" d="M39.2361 3.63622L36.1974 0.601459C35.3933 -0.200486 34.0908 -0.200486 33.2868 0.601459L30.248 3.63622H39.2361Z" fill="#777A8C"/>
</svg>
