<svg width="130" height="30" viewBox="0 0 130 30" fill="none" xmlns="http://www.w3.org/2000/svg">
<g clip-path="url(#clip0)">
<path d="M3.19808 29.9975C1.4379 29.9975 0 28.5596 0 26.7994V11.3544C0 9.59426 1.4379 8.18115 3.19808 8.18115C4.95827 8.18115 6.39617 9.61905 6.39617 11.3792V26.8242C6.37137 28.5596 4.95827 29.9975 3.19808 29.9975Z" fill="white"/>
<path d="M16.7093 29.9972C15.7672 29.9972 14.8499 29.5758 14.2549 28.8568L7.80917 21.1467C6.81752 19.9567 6.81752 18.2461 7.80917 17.0561L14.2549 9.32125C15.3953 7.95772 17.4034 7.78419 18.7422 8.8998C20.0809 10.0154 20.2792 12.0483 19.1636 13.387L14.4285 19.089L19.1636 24.7663C20.2792 26.1298 20.1057 28.1379 18.7422 29.2535C18.1719 29.7245 17.453 29.9972 16.7093 29.9972Z" fill="white"/>
<path d="M37.931 29.9974H24.4198C22.6596 29.9974 21.2217 28.5595 21.2217 26.7993V11.3543C21.2217 9.59415 22.6596 8.15625 24.4198 8.15625C26.1799 8.15625 27.6178 9.59415 27.6178 11.3543V23.6013H34.7578V11.3543C34.7578 9.59415 36.1957 8.15625 37.9558 8.15625C39.716 8.15625 41.1539 9.59415 41.1539 11.3543V26.7993C41.1291 28.5595 39.6912 29.9974 37.931 29.9974Z" fill="white"/>
<path d="M59.1771 29.9975H45.6659C43.9057 29.9479 42.5174 28.4853 42.5669 26.7251C42.6165 25.0393 43.98 23.6757 45.6659 23.6262H55.9791V23.4526L44.7734 20.2545C43.4098 19.8579 42.4678 18.6183 42.4678 17.1804V11.3544C42.4678 9.59426 43.9057 8.18115 45.6659 8.18115H59.1771C60.9373 8.18115 62.3752 9.61905 62.3752 11.3792C62.3752 13.1394 60.9373 14.5773 59.1771 14.5773H48.8639V14.7756L60.0696 17.9737C61.4331 18.3704 62.3752 19.61 62.3752 21.0479V26.8242C62.3752 28.5844 60.9373 29.9975 59.1771 29.9975Z" fill="white"/>
<path d="M103.578 29.9974C101.817 29.9974 100.404 28.5595 100.404 26.7993V18.2959L98.9168 19.5851C97.7268 20.6015 95.9666 20.6015 94.7518 19.5851L93.2643 18.2959V26.7993C93.2643 28.5595 91.8264 29.9974 90.0662 29.9974C88.3061 29.9974 86.8682 28.5595 86.8682 26.7993V11.3543C86.8682 9.59415 88.3061 8.15625 90.0662 8.15625C90.8348 8.15625 91.5537 8.42895 92.1487 8.92478L96.8343 12.941L101.495 8.92478C102.834 7.78438 104.842 7.93313 106.007 9.27186C106.503 9.84206 106.776 10.5858 106.776 11.3543V26.7993C106.8 28.5595 105.362 29.9974 103.578 29.9974Z" fill="white"/>
<path d="M82.3322 29.9975C80.572 29.9975 79.1341 28.5596 79.1341 26.7994V24.0972L71.1761 14.5525H70.0852V23.6014H74.8948C76.6549 23.6509 78.0433 25.1136 77.9937 26.8738C77.9441 28.5596 76.5806 29.9232 74.8948 29.9727H66.8872C65.127 29.9727 63.7139 28.5348 63.7139 26.7747V11.3544C63.7139 9.59426 65.1518 8.18115 66.8872 8.18115H72.6883C73.6304 8.18115 74.5477 8.6026 75.1427 9.32155L84.7865 20.8991C85.2575 21.4693 85.5302 22.1883 85.5302 22.932V26.7994C85.5302 28.5596 84.1171 29.9975 82.3322 29.9975Z" fill="white"/>
<path d="M126.758 29.9975C124.998 29.9975 123.56 28.5596 123.56 26.7994V24.0972L115.602 14.5525H114.487V23.6014H119.296C121.056 23.6509 122.445 25.1136 122.395 26.8738C122.345 28.5596 120.982 29.9232 119.296 29.9727H111.313C109.553 29.9727 108.115 28.5348 108.115 26.7747V11.3544C108.115 9.59426 109.553 8.18115 111.313 8.18115H117.114C118.057 8.18115 118.949 8.6026 119.569 9.32155L129.213 20.8991C129.684 21.4693 129.956 22.1883 129.956 22.932V26.7994C129.956 28.5844 128.519 29.9975 126.758 29.9975Z" fill="white"/>
<path d="M69.9365 0.396746C69.7134 0.198415 69.4655 0.0496669 69.168 8.41912e-05C68.7961 -0.0494985 68.4243 0.198415 68.1763 0.371954C67.9284 0.545494 67.4326 0.991738 67.2343 1.16528C67.0359 1.33882 66.5401 1.43798 65.722 1.93381C64.9039 2.42964 61.7306 4.46253 61.7306 4.46253H62.5487L58.8548 6.37146H59.2267L58.7061 6.76812C59.0036 6.84249 59.301 6.79291 59.5738 6.64416V6.76812C59.5738 6.76812 63.9618 5.03273 64.8047 5.47897L64.2841 5.62772C64.3337 5.62772 65.1518 5.6773 65.1518 5.6773C65.2014 6.02438 65.3997 6.34667 65.6972 6.52021C66.193 6.84249 66.2178 7.04082 66.2178 7.04082C66.2178 7.04082 65.9699 7.13999 65.9699 7.28874C66.441 7.13999 66.9368 7.13999 67.383 7.28874C67.383 7.28874 67.3582 7.13999 67.0111 7.04082C66.6641 6.89208 66.3666 6.66895 66.1435 6.34667C65.9451 6.07396 65.8708 5.72688 65.9947 5.4046C66.1187 5.08231 66.5401 4.90877 67.4078 4.46253C68.4243 3.94191 68.6722 3.54525 68.7961 3.22296C68.9201 2.90067 69.168 2.30568 69.2672 2.00818C69.3663 1.73548 69.5399 1.51236 69.763 1.31403C70.0357 1.16528 70.3332 1.04132 70.6059 0.942155C70.6555 0.966946 70.1101 0.520702 69.9365 0.396746Z" fill="white"/>
</g>
<defs>
<clipPath id="clip0">
<rect width="129.949" height="30" fill="white"/>
</clipPath>
</defs>
</svg>
