<svg width="145" height="145" viewBox="0 0 145 145" fill="none" xmlns="http://www.w3.org/2000/svg">
<circle cx="72.5" cy="72.5" r="72.5" fill="white" fill-opacity="0.1"/>
<path d="M108.971 51.039C107.303 49.5438 105.449 48.4223 103.225 48.0485C100.444 47.6747 97.664 49.5438 95.8103 50.8521C93.9566 52.1605 90.2493 55.5249 88.7664 56.8333C87.2834 58.1416 83.5761 58.8893 77.459 62.6275C71.3418 66.3657 47.6148 81.6923 47.6148 81.6923H53.7319L26.1122 96.0843H28.8927L25 99.0749C27.2244 99.6356 29.4488 99.2618 31.4879 98.1403V99.0749C31.4879 99.0749 64.2979 85.9912 70.6003 89.3556L66.7076 90.477C67.0784 90.477 73.1955 90.8509 73.1955 90.8509C73.5662 93.4676 75.0492 95.8974 77.2736 97.2058C80.9809 99.6356 81.1663 101.131 81.1663 101.131C81.1663 101.131 79.3126 101.879 79.3126 103C82.8346 101.879 86.5419 101.879 89.8785 103C89.8785 103 89.6932 101.879 87.098 101.131C84.5029 100.009 82.2785 98.3273 80.6102 95.8974C79.1272 93.8414 78.5712 91.2247 79.498 88.7948C80.4248 86.365 83.576 85.0566 90.0639 81.6923C97.664 77.7672 99.5176 74.7766 100.444 72.3468C101.371 69.9169 103.225 65.4311 103.966 63.1882C104.708 61.1322 106.005 59.45 107.674 57.9547C109.713 56.8333 111.937 55.8987 113.976 55.1511C114.347 55.338 110.269 51.9736 108.971 51.039Z" fill="white"/>
</svg>
