<svg width="131" height="30" viewBox="0 0 131 30" fill="none" xmlns="http://www.w3.org/2000/svg">
<path d="M30.411 12.7854C29.2328 12.7708 28.0682 13.0403 27.0148 13.5712C25.9613 14.1021 25.0497 14.8791 24.3561 15.8371C22.74 17.8415 21.8781 20.3547 21.9218 22.9349C21.8405 24.5944 22.3861 26.2235 23.4492 27.4954C23.9523 28.0703 24.5776 28.5242 25.2786 28.8233C25.9797 29.1225 26.7387 29.2592 27.4994 29.2235C28.6233 29.2226 29.7321 28.9625 30.7404 28.4631C31.7487 27.9638 32.6297 27.2386 33.3157 26.3432C35.0402 24.2625 35.9709 21.6318 35.9409 18.9231C36.0098 17.3352 35.5569 15.7687 34.6522 14.4656C33.7453 13.3615 32.3134 12.7854 30.411 12.7854ZM30.5065 24.9648C30.1265 25.3551 29.6738 25.6662 29.1742 25.8804C28.6746 26.0945 28.138 26.2075 27.5949 26.2129C27.2312 26.233 26.8679 26.165 26.5357 26.0146C26.2035 25.8643 25.912 25.636 25.6857 25.3489C25.1859 24.6564 24.9445 23.8091 25.0038 22.9555C24.937 21.1302 25.4557 19.3318 26.4835 17.8259C26.8851 17.1877 27.4424 16.6636 28.1025 16.3035C28.7626 15.9433 29.5033 15.7592 30.2542 15.7685C31.9634 15.7685 32.8202 16.8224 32.8248 18.93C32.8539 21.1669 32.0234 23.3287 30.5065 24.9648ZM122.803 20.3633C122.454 20.2421 122.073 20.259 121.736 20.4105C121.399 20.5621 121.132 20.837 120.99 21.1793C119.66 24.5396 118.037 26.2129 116.032 26.2129C114.982 26.2129 114.457 25.3009 114.457 23.5796C114.588 21.6264 114.87 19.6865 115.303 17.7779L115.732 15.7617H119.824C120.164 15.7648 120.495 15.6457 120.756 15.4258C121.017 15.2058 121.192 14.8994 121.249 14.5616C121.292 14.3479 121.288 14.1274 121.236 13.9156C121.185 13.7038 121.088 13.506 120.951 13.3364C120.815 13.1667 120.644 13.0294 120.449 12.9341C120.254 12.8389 120.04 12.7881 119.824 12.7854H116.414L117.096 9.43195C117.143 9.20839 117.141 8.97708 117.089 8.75459C117.037 8.53209 116.937 8.32392 116.795 8.145C116.654 7.96607 116.475 7.82082 116.271 7.71964C116.067 7.61847 115.844 7.56388 115.616 7.55978C115.269 7.55453 114.931 7.67167 114.661 7.89088C114.391 8.11009 114.205 8.41754 114.137 8.75989L113.257 12.7374H103.711C102.527 12.7266 101.357 13.0027 100.301 13.5422C99.2444 14.0816 98.3327 14.8688 97.6426 15.8371C96.0265 17.8415 95.1646 20.3547 95.2083 22.9349C95.2081 23.6277 95.2882 24.3181 95.447 24.9923C95.139 25.3549 94.7592 25.6489 94.3318 25.8556C93.9045 26.0622 93.4389 26.1769 92.965 26.1924C92.7248 26.2156 92.4825 26.1797 92.2591 26.0877C92.0358 25.9957 91.8381 25.8504 91.6831 25.6643C91.389 25.1413 91.2561 24.5422 91.3013 23.943C91.365 22.2129 91.5934 20.4929 91.9831 18.8065L94.4583 7.20317C94.503 7.0082 94.5092 6.80626 94.4764 6.6089C94.4436 6.41153 94.3724 6.2226 94.267 6.0529C94.1616 5.88319 94.0239 5.73602 93.862 5.61981C93.7 5.50359 93.5168 5.4206 93.323 5.37557C93.1291 5.33055 92.9283 5.32436 92.7321 5.35737C92.5359 5.39039 92.348 5.46195 92.1793 5.56798C92.0105 5.67401 91.8642 5.81242 91.7487 5.97532C91.6331 6.13822 91.5506 6.32242 91.5058 6.5174L90.0739 13.6015C89.0647 12.9943 87.9087 12.6787 86.7328 12.6894C85.5511 12.6719 84.3807 12.9217 83.3079 13.4202C82.2351 13.9188 81.2873 14.6533 80.5347 15.5697C78.8608 17.6189 77.9815 20.2086 78.0595 22.8595C78.0429 23.7016 78.1556 24.5413 78.3936 25.3489C77.8094 25.8586 77.0667 26.1472 76.2935 26.1649C76.0412 26.1876 75.787 26.1518 75.5506 26.0603C75.3142 25.9687 75.1018 25.8239 74.9298 25.6369C74.5944 25.1297 74.4427 24.5219 74.5002 23.9156C74.5512 22.76 74.711 21.6119 74.9775 20.4867C75.0194 20.2727 75.0167 20.0523 74.9696 19.8394C74.9225 19.6265 74.832 19.4258 74.7039 19.2498C74.5757 19.0739 74.4127 18.9266 74.225 18.8172C74.0374 18.7079 73.8293 18.6389 73.6138 18.6145C73.2441 18.5669 72.8699 18.6581 72.5629 18.8707C72.2559 19.0832 72.0377 19.4023 71.95 19.7666C71.5509 21.4094 70.8376 22.9584 69.8499 24.3271C69.5046 24.8624 69.0402 25.3095 68.4934 25.6333C67.9467 25.957 67.3326 26.1484 66.6997 26.1924C66.3709 26.1859 66.0494 26.094 65.7663 25.9258C65.4831 25.7576 65.248 25.5187 65.0837 25.2323C64.6428 24.4621 64.4255 23.5831 64.4564 22.6949C64.3682 20.8979 64.8873 19.1238 65.9292 17.6613C66.3655 17.0266 66.9513 16.5103 67.6342 16.1585C68.3171 15.8067 69.0759 15.6304 69.8431 15.6451C70.6308 15.6511 71.4095 15.8142 72.1341 16.1251C72.3497 16.2313 72.5894 16.2783 72.8288 16.2614C73.0683 16.2446 73.299 16.1644 73.4978 16.0291C73.7323 15.8884 73.9232 15.6849 74.0493 15.4413C74.1754 15.1977 74.2317 14.9237 74.2118 14.6498C74.192 14.3759 74.0969 14.113 73.9371 13.8903C73.7773 13.6677 73.5591 13.4941 73.3069 13.3889C72.9249 13.2221 72.5275 13.0935 72.1205 13.0049C71.3895 12.7994 70.6359 12.6865 69.8772 12.6688C68.7064 12.664 67.549 12.9197 66.488 13.4176C65.427 13.9156 64.4887 14.6435 63.7404 15.5491C62.8361 16.5713 62.1679 17.7821 61.7835 19.0946C60.3038 23.8196 58.4014 26.1238 56.1104 26.1238C55.783 26.1499 55.4543 26.0933 55.1543 25.9592C54.8542 25.825 54.5922 25.6176 54.3921 25.3557C54.0135 24.811 53.8286 24.1539 53.867 23.4904C53.8552 23.2812 53.8712 23.0713 53.9148 22.8664C55.2955 22.3252 56.5011 21.4116 57.3991 20.2261C58.2713 19.1029 58.7507 17.7217 58.7628 16.2966C58.7628 13.8964 57.4809 12.6963 54.8557 12.6963C53.953 12.6919 53.0584 12.8679 52.2239 13.214C51.3893 13.5601 50.6314 14.0694 49.9941 14.7124L51.6169 7.16888C51.6626 6.94803 51.6586 6.71972 51.6054 6.50059C51.5522 6.28145 51.451 6.07704 51.3092 5.90225C51.1674 5.72746 50.9886 5.5867 50.7859 5.49024C50.5831 5.39379 50.3615 5.34407 50.1373 5.34471C49.7901 5.33946 49.452 5.45661 49.1818 5.67582C48.9115 5.89503 48.7261 6.20248 48.6576 6.54483L44.2255 27.3582C44.1786 27.5786 44.1815 27.8068 44.2338 28.026C44.2862 28.2451 44.3867 28.4497 44.5279 28.6247C44.6692 28.7997 44.8477 28.9406 45.0502 29.0371C45.2528 29.1336 45.4742 29.1833 45.6983 29.1824C46.0407 29.1715 46.3689 29.0421 46.6274 28.8159C46.8858 28.5897 47.0586 28.2807 47.1166 27.9411L48.4803 21.5634C48.715 20.7168 49.0348 19.8965 49.4349 19.1151C49.9369 18.2174 50.6197 17.4349 51.4396 16.8178C52.2708 16.0914 53.3388 15.6984 54.4398 15.7137C54.5955 15.6906 54.7545 15.7045 54.904 15.7542C55.0534 15.8039 55.1892 15.8882 55.3005 16.0001C55.4119 16.1121 55.4956 16.2487 55.545 16.399C55.5945 16.5493 55.6083 16.7092 55.5853 16.8658C55.5469 17.3686 55.3986 17.8567 55.1511 18.2953C54.9036 18.7339 54.5629 19.1122 54.1534 19.4032C53.286 20.1894 52.2108 20.7062 51.0578 20.8913C50.9623 21.8034 50.9146 22.4755 50.9146 22.8595C50.8412 24.5095 51.3083 26.1381 52.2442 27.4954C52.6965 28.067 53.2808 28.5189 53.9462 28.8117C54.6117 29.1045 55.3382 29.2294 56.0626 29.1755C57.0671 29.1663 58.0565 28.9283 58.9564 28.4793C59.8563 28.0303 60.6434 27.3821 61.2584 26.5833L61.8312 25.8975C62.047 26.4564 62.3534 26.9755 62.7381 27.4336C63.1962 27.9997 63.7792 28.4506 64.4409 28.7506C65.1025 29.0506 65.8245 29.1914 66.5497 29.1618C68.5953 29.1618 70.3204 28.2017 71.7523 26.1855C72.366 28.2017 73.7979 29.1618 76.1844 29.1618C77.5248 29.1449 78.8183 28.6628 79.846 27.7971C80.7672 28.6657 81.9931 29.1318 83.2553 29.0932C85.3009 29.0932 87.0192 28.1331 88.4511 26.1169C89.0716 28.1331 90.4967 29.0932 92.8832 29.0932C94.3977 29.1085 95.861 28.5419 96.9743 27.5091C97.4704 28.0316 98.0707 28.4428 98.7358 28.7158C99.4008 28.9888 100.116 29.1174 100.834 29.0932C101.958 29.0933 103.067 28.8337 104.075 28.3343C105.084 27.8349 105.965 27.1091 106.65 26.2129C108.367 24.1412 109.297 21.524 109.275 18.8271C109.296 17.7298 109.101 16.6392 108.702 15.6177H112.664L112.282 17.3458C111.795 19.3453 111.476 21.3823 111.328 23.4355C111.328 27.173 112.855 29.0932 115.855 29.0932C119.264 29.0932 121.815 26.789 123.628 22.2354C123.708 22.0593 123.749 21.8683 123.75 21.6749C123.751 21.4815 123.711 21.2902 123.633 21.1134C123.555 20.9366 123.441 20.7783 123.298 20.6491C123.155 20.5198 122.986 20.4224 122.803 20.3633ZM88.9966 18.5391C88.4715 21.1793 87.6328 23.0995 86.6578 24.3476C85.6827 25.5957 84.5645 26.2129 83.4189 26.2129C83.0893 26.2063 82.7669 26.1145 82.4827 25.9463C82.1985 25.7782 81.9621 25.5394 81.7961 25.2529C81.3662 24.496 81.1515 23.6348 81.1756 22.7635C81.0867 20.9654 81.6085 19.1903 82.6553 17.7299C83.0044 17.1903 83.466 16.7335 84.008 16.391C84.55 16.0485 85.1596 15.8286 85.7944 15.7464C86.4293 15.6643 87.0743 15.7218 87.6849 15.9151C88.2955 16.1083 88.857 16.4327 89.3307 16.8658L88.9966 18.5391ZM105.593 22.1394C105.131 23.1302 104.555 24.0625 103.875 24.9168C103.5 25.3176 103.05 25.6388 102.55 25.8614C102.049 26.0841 101.51 26.2036 100.963 26.2129C100.6 26.233 100.238 26.165 99.9071 26.0146C99.576 25.8642 99.2857 25.6359 99.0608 25.3489C98.561 24.6564 98.3196 23.8091 98.379 22.9555C98.313 21.1314 98.8291 19.3338 99.8518 17.8259C100.258 17.1918 100.816 16.6708 101.475 16.3112C102.134 15.9516 102.873 15.765 103.622 15.7685C105.341 15.7685 106.2 16.8224 106.2 18.93C106.167 20.0284 105.95 21.1134 105.559 22.1394H105.593ZM43.3323 5.35157C42.9851 5.34632 42.6471 5.46346 42.3768 5.68268C42.1065 5.90189 41.9211 6.20934 41.8526 6.55168L37.4205 27.3651C37.3737 27.5855 37.3765 27.8137 37.4288 28.0328C37.4812 28.252 37.5817 28.4566 37.723 28.6316C37.8642 28.8066 38.0427 28.9475 38.2452 29.044C38.4478 29.1405 38.6692 29.1901 38.8934 29.1892C39.2405 29.1945 39.5786 29.0773 39.8488 28.8581C40.1191 28.6389 40.3045 28.3315 40.373 27.9891L44.8119 7.17574C44.8538 6.95533 44.8471 6.72836 44.7924 6.51081C44.7377 6.29327 44.6362 6.09042 44.4952 5.91654C44.3541 5.74266 44.1769 5.60197 43.976 5.50436C43.7751 5.40675 43.5554 5.3546 43.3323 5.35157ZM11.6189 0.75C8.73959 0.760839 5.98131 1.91601 3.94533 3.96368C1.90935 6.01135 0.760777 8.78548 0.75 11.6813C0.749861 12.8887 0.943264 14.0882 1.32276 15.2336C1.45902 15.6085 1.73268 15.9168 2.08765 16.0953C2.44262 16.2738 2.85203 16.309 3.23198 16.1937C3.60074 16.0528 3.90208 15.7756 4.07443 15.4187C4.24678 15.0618 4.27714 14.6522 4.15931 14.2735C3.83648 13.3828 3.69278 12.4364 3.73656 11.4893C3.78165 9.96043 4.26782 8.47774 5.13584 7.22183C6.00387 5.96591 7.21628 4.99095 8.62543 4.41571C10.0346 3.84046 11.5796 3.68975 13.0724 3.98193C14.5652 4.27411 15.9413 4.99658 17.0331 6.06133C18.1249 7.12608 18.8853 8.48717 19.2217 9.97882C19.5581 11.4705 19.4559 13.0283 18.9277 14.4626C18.3994 15.8969 17.4678 17.1457 16.2464 18.057C15.025 18.9683 13.5665 19.5027 12.0485 19.5952C12.0485 19.5952 10.5279 19.6912 9.76421 19.7872C9.48418 19.827 9.20648 19.8819 8.93234 19.9518C8.91265 19.9667 8.88828 19.9739 8.86372 19.9721C8.83917 19.9704 8.81606 19.9597 8.79865 19.9422C8.78124 19.9247 8.7707 19.9015 8.76895 19.8768C8.76721 19.8521 8.77438 19.8276 8.78915 19.8078L9.0278 18.5117L10.4597 11.9899C10.542 11.6016 10.4675 11.1963 10.2527 10.8632C10.0379 10.5301 9.70028 10.2965 9.31419 10.2137C8.92809 10.131 8.52512 10.2059 8.19393 10.4219C7.86273 10.638 7.63045 10.9775 7.54816 11.3658C7.54816 11.3658 4.13885 27.2896 4.13885 27.4336C4.09191 27.6258 4.08444 27.8255 4.11692 28.0206C4.1494 28.2158 4.22114 28.4022 4.32774 28.5685C4.43434 28.7347 4.57356 28.8774 4.73688 28.9876C4.9002 29.0979 5.08418 29.1735 5.27756 29.2098C5.46903 29.2559 5.66782 29.2624 5.86186 29.2289C6.0559 29.1954 6.24114 29.1225 6.40631 29.0148C6.57149 28.907 6.71316 28.7666 6.82271 28.6021C6.93226 28.4375 7.00741 28.2523 7.04358 28.0577C7.09132 27.8657 7.52089 25.7535 7.52089 25.7535C7.67912 24.976 8.07051 24.266 8.6423 23.7191C9.21409 23.1723 9.93882 22.8148 10.7188 22.6949C11.0461 22.6469 12.4303 22.5509 12.4303 22.5509C15.1964 22.2938 17.7594 20.9805 19.5924 18.8812C21.4254 16.7819 22.389 14.0561 22.2851 11.2642C22.1812 8.47225 21.0176 5.82649 19.0337 3.87088C17.0499 1.91526 14.3964 0.798421 11.6189 0.75V0.75Z" fill="white"/>
<path d="M128.254 25.5372C128.012 25.4884 127.762 25.4876 127.52 25.535C127.277 25.5824 127.047 25.6769 126.841 25.8133C126.635 25.9496 126.459 26.125 126.322 26.3294C126.184 26.5338 126.089 26.7631 126.041 27.0042C125.989 27.2453 125.986 27.4943 126.033 27.7365C126.079 27.9787 126.174 28.2092 126.311 28.4144C126.449 28.6196 126.627 28.7952 126.834 28.931C127.041 29.0667 127.273 29.1598 127.517 29.2048C127.759 29.2595 128.01 29.2646 128.254 29.2197C128.498 29.1748 128.731 29.0808 128.937 28.9435C129.144 28.8062 129.32 28.6284 129.455 28.4211C129.59 28.2138 129.681 27.9812 129.723 27.7377C129.805 27.254 129.7 26.7571 129.427 26.3483C129.154 25.9394 128.735 25.6493 128.254 25.5372Z" fill="white"/>
</svg>
