<svg width="145" height="145" viewBox="0 0 145 145" fill="none" xmlns="http://www.w3.org/2000/svg">
<rect width="145" height="145" rx="72.5" fill="white" fill-opacity="0.1"/>
<path d="M74.3348 37.4033C67.2875 37.4297 60.5364 40.2409 55.5532 45.2241C50.57 50.2073 47.7588 56.9584 47.7324 64.0057C47.7321 66.9439 48.2054 69.863 49.1343 72.6506C49.4678 73.5629 50.1376 74.3131 51.0064 74.7475C51.8752 75.182 52.8773 75.2676 53.8072 74.9871C54.7098 74.6441 55.4473 73.9694 55.8692 73.1009C56.291 72.2324 56.3654 71.2356 56.0769 70.3141C55.2868 68.1463 54.9351 65.8432 55.0422 63.5384C55.1526 59.8177 56.3425 56.2095 58.4671 53.1531C60.5916 50.0967 63.5591 47.7241 67.0081 46.3242C70.4571 44.9242 74.2387 44.5575 77.8924 45.2685C81.5462 45.9796 84.9143 47.7378 87.5866 50.3289C90.2588 52.9201 92.12 56.2324 92.9433 59.8625C93.7666 63.4926 93.5165 67.2837 92.2235 70.7742C90.9305 74.2647 88.6505 77.3039 85.661 79.5216C82.6715 81.7393 79.1016 83.0399 75.3862 83.2648C75.3862 83.2648 71.6645 83.4985 69.7953 83.7321C69.1099 83.8288 68.4303 83.9626 67.7593 84.1327C67.7111 84.1688 67.6514 84.1864 67.5913 84.1821C67.5312 84.1778 67.4747 84.152 67.4321 84.1094C67.3895 84.0668 67.3636 84.0102 67.3594 83.9501C67.3551 83.89 67.3727 83.8304 67.4088 83.7822L67.9929 80.628L71.4976 64.7567C71.699 63.8117 71.5168 62.8254 70.991 62.0148C70.4652 61.2041 69.6389 60.6356 68.6939 60.4342C67.7489 60.2328 66.7626 60.4151 65.952 60.9409C65.1413 61.4667 64.5728 62.293 64.3714 63.238C64.3714 63.238 56.0269 101.99 56.0269 102.34C55.912 102.808 55.8937 103.294 55.9732 103.769C56.0527 104.244 56.2283 104.697 56.4892 105.102C56.7501 105.507 57.0909 105.854 57.4906 106.122C57.8903 106.391 58.3406 106.575 58.814 106.663C59.2826 106.775 59.7691 106.791 60.2441 106.709C60.719 106.628 61.1724 106.45 61.5766 106.188C61.9809 105.926 62.3277 105.584 62.5958 105.184C62.8639 104.784 63.0479 104.333 63.1364 103.859C63.2532 103.392 64.3046 98.2516 64.3046 98.2516C64.6919 96.3596 65.6499 94.6317 67.0494 93.3008C68.4489 91.9699 70.2227 91.1 72.1318 90.8083C72.9329 90.6915 76.3208 90.4578 76.3208 90.4578C83.091 89.8321 89.3643 86.6362 93.8506 81.5273C98.3369 76.4184 100.695 69.7848 100.441 62.9905C100.187 56.1961 97.3389 49.7574 92.4832 44.9983C87.6275 40.2391 81.1329 37.5212 74.3348 37.4033Z" fill="white"/>
<path d="M79.5886 98.3335C79.0132 98.2168 78.4204 98.215 77.8443 98.3282C77.2681 98.4414 76.7201 98.6673 76.2316 98.993C75.743 99.3187 75.3237 99.7377 74.9976 100.226C74.6716 100.714 74.4452 101.262 74.3316 101.838C74.2079 102.414 74.201 103.009 74.3112 103.588C74.4215 104.166 74.6466 104.717 74.9734 105.207C75.3001 105.697 75.7218 106.117 76.2136 106.441C76.7053 106.765 77.2571 106.988 77.8363 107.095C78.4117 107.226 79.0077 107.238 79.5879 107.131C80.1682 107.024 80.7204 106.799 81.2109 106.471C81.7014 106.143 82.1199 105.718 82.4406 105.223C82.7614 104.728 82.9778 104.172 83.0766 103.591C83.2733 102.435 83.022 101.248 82.3739 100.271C81.7259 99.2943 80.7298 98.6014 79.5886 98.3335Z" fill="white"/>
</svg>
