<svg width="54" height="54" viewBox="0 0 54 54" fill="none" xmlns="http://www.w3.org/2000/svg">
<path opacity="0.4" d="M27 49.5C39.4264 49.5 49.5 39.4264 49.5 27C49.5 14.5736 39.4264 4.5 27 4.5C14.5736 4.5 4.5 14.5736 4.5 27C4.5 39.4264 14.5736 49.5 27 49.5Z" stroke="#43454F" stroke-width="2" stroke-linecap="round" stroke-linejoin="round"/>
<path d="M27 24.375C33.5239 24.375 38.8125 22.6121 38.8125 20.4375C38.8125 18.2629 33.5239 16.5 27 16.5C20.4761 16.5 15.1875 18.2629 15.1875 20.4375C15.1875 22.6121 20.4761 24.375 27 24.375Z" stroke="#43454F" stroke-width="2" stroke-linecap="round" stroke-linejoin="round"/>
<path d="M38.8125 27C38.8125 29.1787 33.5625 30.9375 27 30.9375C20.4375 30.9375 15.1875 29.1787 15.1875 27" stroke="#43454F" stroke-width="2" stroke-linecap="round" stroke-linejoin="round"/>
<path d="M15.1875 20.4375V33.5625C15.1875 35.7412 20.4375 37.5 27 37.5C33.5625 37.5 38.8125 35.7412 38.8125 33.5625V20.4375" stroke="#43454F" stroke-width="2" stroke-linecap="round" stroke-linejoin="round"/>
</svg>
