<svg width="54" height="54" viewBox="0 0 54 54" fill="none" xmlns="http://www.w3.org/2000/svg">
<path opacity="0.4" d="M27 49.5C27 49.5 45 40.5 45 27V11.25L27 4.5L9 11.25V27C9 40.5 27 49.5 27 49.5Z" stroke="#43454F" stroke-width="2" stroke-linecap="round" stroke-linejoin="round"/>
<path fill-rule="evenodd" clip-rule="evenodd" d="M33.4278 32.4818C33.4195 34.9172 31.7124 37.0613 29.2223 37.7641C26.7322 38.4669 24.044 37.5631 22.6 35.5376C21.156 33.5122 21.2953 30.8409 22.9432 28.9568C23.3391 28.4987 24.0337 28.3815 24.5754 28.6814L26.2224 29.5902C25.8695 29.9207 25.5313 30.2649 25.2078 30.6229C24.3249 31.5782 24.2202 32.964 24.9505 34.0262C25.6809 35.0883 27.0715 35.5726 28.3655 35.2154C29.6596 34.8583 30.5473 33.7451 30.5456 32.4818C30.5455 31.5408 30.0505 30.6601 29.2222 30.1272H29.2075L28.8546 29.9344L27.0165 28.9155L27.0018 28.9017L24.649 27.6074L23.7078 27.0841C23.6637 27.0566 23.6343 27.0428 23.5902 27.0153C23.4573 26.9453 23.3296 26.8671 23.2079 26.7812C20.5556 25.0478 19.3889 21.9176 20.3134 19.0153C21.2378 16.1131 24.0452 14.0927 27.2781 14.0031C30.511 13.9135 33.4411 15.7748 34.5473 18.6207C35.6535 21.4667 34.6866 24.6561 32.1485 26.5333C31.7317 26.8454 31.1523 26.8837 30.6927 26.6297L28.0458 25.1977V22.1133H29.2663V18.96H28.0458V17.6382H26.0165V25.2252L28.0458 26.3268L30.2662 27.5385C30.3019 27.5546 30.3363 27.573 30.3692 27.5936L30.4721 27.6487C30.5309 27.6762 30.5751 27.7038 30.6339 27.7313C32.3763 28.7589 33.4318 30.5536 33.4278 32.4818Z" fill="#43454F"/>
</svg>
