<svg width="54" height="54" viewBox="0 0 54 54" fill="none" xmlns="http://www.w3.org/2000/svg">
<path opacity="0.4" d="M40.5 18H42.75C45.1369 18 47.4261 18.9482 49.114 20.636C50.8018 22.3239 51.75 24.6131 51.75 27C51.75 29.3869 50.8018 31.6761 49.114 33.364C47.4261 35.0518 45.1369 36 42.75 36H40.5" stroke="#43454F" stroke-width="2" stroke-linecap="round" stroke-linejoin="round"/>
<path opacity="0.4" d="M4.5 18H40.5V38.25C40.5 40.6369 39.5518 42.9261 37.864 44.614C36.1761 46.3018 33.8869 47.25 31.5 47.25H13.5C11.1131 47.25 8.82387 46.3018 7.13604 44.614C5.44821 42.9261 4.5 40.6369 4.5 38.25V18Z" stroke="#43454F" stroke-width="2" stroke-linecap="round" stroke-linejoin="round"/>
<path d="M13.5 2.25V9" stroke="#43454F" stroke-width="2" stroke-linecap="round" stroke-linejoin="round"/>
<path d="M22.5 2.25V9" stroke="#43454F" stroke-width="2" stroke-linecap="round" stroke-linejoin="round"/>
<path d="M31.5 2.25V9" stroke="#43454F" stroke-width="2" stroke-linecap="round" stroke-linejoin="round"/>
</svg>
