<svg width="164" height="35" viewBox="0 0 164 35" fill="none" xmlns="http://www.w3.org/2000/svg">
<path d="M38.7698 16.7169C38.2042 16.5205 37.5586 16.3712 36.8328 16.2703C36.8247 16.2693 36.8169 16.268 36.8088 16.2667L35.763 16.1289C33.5833 15.817 32.6937 15.2568 32.6937 14.1946C32.6937 12.8755 33.9961 12.023 36.0112 12.023C37.1202 12.023 38.2073 12.276 39.2526 12.7739L41.0932 10.9386C39.5627 10.0231 37.9056 9.57675 36.0334 9.57675C32.4322 9.57675 30.0127 11.4925 30.0127 14.346C30.0127 16.0556 30.828 17.1012 31.9133 17.7369C32.2535 17.9362 32.6195 18.0954 32.996 18.2215C33.5088 18.3937 34.04 18.5055 34.5471 18.5766L35.7214 18.7364C38.0534 19.0558 39.0481 19.6412 39.0481 20.6938C39.0481 21.9593 37.6315 22.8435 35.6026 22.8435C34.1886 22.8435 32.5845 22.3639 31.4791 21.6315L29.6965 23.4094C29.7072 23.4201 29.7177 23.4313 29.73 23.4412C31.1964 24.5816 33.4506 25.2898 35.613 25.2898C37.2835 25.2898 38.8074 24.8521 39.9026 24.0548C41.0984 23.1856 41.7312 21.947 41.7312 20.4765C41.7312 18.6598 40.7361 17.4003 38.7698 16.7169Z" fill="#FF721C"/>
<path fill-rule="evenodd" clip-rule="evenodd" d="M71.1244 25.316H68.4878L66.9403 21.3808H60.2866L58.7394 25.316H56.103L62.2954 9.56833L62.2886 9.55035H62.3022H62.867H64.3599H64.9247L71.1244 25.316ZM63.6136 12.9212L61.2492 18.9337H65.978L63.6136 12.9212Z" fill="#FF721C"/>
<path d="M82.839 20.4905C84.4894 19.4387 85.5848 17.5969 85.5848 15.4985C85.5848 12.2279 82.9262 9.57663 79.6466 9.57663C76.3673 9.57663 73.7087 12.2279 73.7087 15.4985V15.4998V25.3423H76.1714V20.2987V15.4998C76.1714 15.4993 76.1714 15.499 76.1714 15.4985C76.1714 13.5874 77.7303 12.0328 79.6466 12.0328C81.563 12.0328 83.1222 13.5874 83.1222 15.4985C83.1222 16.7754 82.4257 17.8926 81.3919 18.4939C80.8785 18.7923 80.2826 18.9645 79.6466 18.9645C79.2712 18.9645 78.9094 18.9038 78.5703 18.7933L80.4354 21.3667L83.3168 25.3423H86.3555L82.839 20.4905Z" fill="#FF721C"/>
<path d="M92.992 17.4593L100.896 9.57663H97.4253L91.2703 15.7147V9.629H88.816V15.6762V16.7566V18.1623V19.2427V25.3423H91.2703V19.2042L97.4253 25.3423H100.896L92.992 17.4593Z" fill="#FF721C"/>
<path fill-rule="evenodd" clip-rule="evenodd" d="M46.6934 10.6936C47.6676 9.99122 48.8634 9.57591 50.1574 9.57591C53.4261 9.57591 56.0755 12.2181 56.0755 15.478C56.0755 18.7376 53.4261 21.38 50.1574 21.38C48.8634 21.38 47.6676 20.9647 46.6934 20.262V25.3416H44.2391V15.4785V15.478V9.57591H46.6934V10.6936ZM46.6933 15.4786C46.6933 17.3837 48.2473 18.9331 50.1573 18.9331C52.0674 18.9331 53.6211 17.3837 53.6211 15.4786C53.6211 13.5743 52.0674 12.0243 50.1573 12.0243C48.2473 12.0243 46.6933 13.5743 46.6933 15.4786Z" fill="#FF721C"/>
<path fill-rule="evenodd" clip-rule="evenodd" d="M118.183 16.941C118.201 12.8391 121.55 9.52784 125.663 9.54556C129.777 9.56301 133.097 12.9032 133.08 17.0051C133.062 21.1074 129.713 24.4183 125.599 24.4009C121.486 24.3829 118.166 21.0433 118.183 16.941ZM120.638 16.9514C120.626 19.6972 122.857 21.9408 125.61 21.9527C128.363 21.9645 130.613 19.7402 130.625 16.9944C130.637 14.2483 128.407 12.0045 125.653 11.9927C122.9 11.981 120.65 14.2055 120.638 16.9514Z" fill="#FF721C"/>
<path fill-rule="evenodd" clip-rule="evenodd" d="M135.534 16.9413C135.552 12.8391 138.901 9.52784 143.014 9.54556C147.128 9.56301 150.448 12.9032 150.43 17.0051C150.412 21.1074 147.063 24.4183 142.95 24.4009C138.836 24.3829 135.516 21.0433 135.534 16.9413ZM137.988 16.9514C137.977 19.6975 140.207 21.9408 142.96 21.9527C145.714 21.9645 147.964 19.7402 147.976 16.9944C147.987 14.2485 145.757 12.0045 143.004 11.9927C140.25 11.981 138 14.2055 137.988 16.9514Z" fill="#FF721C"/>
<path d="M155.364 22.8736L155.422 9.55599L152.967 9.5453L152.909 22.8632L152.899 25.3109L155.353 25.3214L163.231 25.355L163.242 22.9074L155.364 22.8736Z" fill="#FF721C"/>
<path fill-rule="evenodd" clip-rule="evenodd" d="M106.376 10.6999C107.353 10.0017 108.55 9.59134 109.844 9.59707C113.113 9.61114 115.751 12.2648 115.737 15.5244C115.723 18.784 113.062 21.415 109.793 21.4012C108.499 21.3954 107.305 20.9749 106.334 20.2683L106.313 25.295L106.312 25.321L103.858 25.3106L103.858 25.2846L103.899 15.7096L103.926 9.54549L106.38 9.55591L106.376 10.6999ZM106.355 15.4835C106.347 17.3881 107.894 18.9443 109.804 18.9526C111.714 18.9607 113.274 17.4178 113.283 15.5132C113.291 13.6084 111.744 12.0522 109.834 12.0438C107.924 12.0358 106.363 13.5787 106.355 15.4835Z" fill="#FF721C"/>
<path fill-rule="evenodd" clip-rule="evenodd" d="M8.52434 16.5351C12.8908 11.567 17.3626 6.47897 10.4233 0C10.2326 2.92787 7.89881 5.52516 5.48795 8.20821C1.25175 12.9227 -3.22239 17.902 3.27392 25.4048C3.44119 22.3187 5.96466 19.4475 8.52434 16.5351ZM11.254 18.465C6.88754 23.4331 2.41576 28.5211 9.35503 35C9.54577 32.0722 11.8795 29.475 14.2904 26.7919C18.5265 22.0774 23.0007 17.0981 16.5045 9.59538C16.3371 12.6814 13.8137 15.5526 11.254 18.465Z" fill="#FF721C"/>
</svg>
