<svg width="215" height="45" viewBox="0 0 215 45" fill="none" xmlns="http://www.w3.org/2000/svg">
<path fill-rule="evenodd" clip-rule="evenodd" d="M49.7109 21.4938C48.9857 21.2412 48.1579 21.0493 47.2273 20.9196C47.217 20.9183 47.2069 20.9166 47.1965 20.915L45.8556 20.7377C43.0608 20.3368 41.9201 19.6165 41.9201 18.2508C41.9201 16.5548 43.59 15.4587 46.1738 15.4587C47.5958 15.4587 48.9897 15.7839 50.33 16.4241L52.69 14.0645C50.7276 12.8873 48.6028 12.3135 46.2023 12.3135C41.5848 12.3135 38.4825 14.7766 38.4825 18.4454C38.4825 20.6436 39.528 21.9879 40.9195 22.8053C41.3557 23.0616 41.825 23.2662 42.3077 23.4284C42.9653 23.6498 43.6463 23.7935 44.2965 23.885L45.8023 24.0903C48.7924 24.501 50.0677 25.2537 50.0677 26.6071C50.0677 28.2341 48.2514 29.371 45.6499 29.371C43.8369 29.371 41.7801 28.7543 40.3628 27.8127L38.0771 30.0986C38.0909 30.1124 38.1043 30.1268 38.12 30.1395C40.0003 31.6057 42.8906 32.5162 45.6633 32.5162C47.8052 32.5162 49.7592 31.9535 51.1634 30.9284C52.6967 29.8109 53.508 28.2184 53.508 26.3277C53.508 23.9918 52.232 22.3725 49.7109 21.4938Z" fill="#777A8C"/>
<path fill-rule="evenodd" clip-rule="evenodd" d="M78.5341 24.3429L81.5658 16.6124L84.5974 24.3429H78.5341ZM87.8153 32.5497H91.196L83.2467 12.2793H82.5225H80.6084H79.8841H79.8667L79.8754 12.3024L71.9355 32.5497H75.3159L77.2997 27.4901H85.8312L87.8153 32.5497Z" fill="#777A8C"/>
<path fill-rule="evenodd" clip-rule="evenodd" d="M106.217 26.3453C108.333 24.9929 109.737 22.6249 109.737 19.9269C109.737 15.7218 106.328 12.313 102.123 12.313C97.9186 12.313 94.5098 15.7218 94.5098 19.9269V19.9286V32.5834H97.6674V26.0987V19.9286C97.6674 19.9279 97.6674 19.9276 97.6674 19.9269C97.6674 17.4698 99.6662 15.4709 102.123 15.4709C104.58 15.4709 106.58 17.4698 106.58 19.9269C106.58 21.5687 105.687 23.0051 104.361 23.7783C103.703 24.1618 102.939 24.3833 102.123 24.3833C101.642 24.3833 101.178 24.3052 100.743 24.1632L103.135 27.4718L106.829 32.5834H110.726L106.217 26.3453Z" fill="#777A8C"/>
<path fill-rule="evenodd" clip-rule="evenodd" d="M119.234 22.448L129.369 12.313H124.919L117.027 20.205V12.3803H113.88V20.1554V21.5446V23.3518V24.741V32.5834H117.027V24.6914L124.919 32.5834H129.369L119.234 22.448Z" fill="#777A8C"/>
<path fill-rule="evenodd" clip-rule="evenodd" d="M64.3121 24.3432C61.863 24.3432 59.8705 22.351 59.8705 19.9016C59.8705 17.4532 61.863 15.4603 64.3121 15.4603C66.7612 15.4603 68.7534 17.4532 68.7534 19.9016C68.7534 22.351 66.7612 24.3432 64.3121 24.3432ZM64.3121 12.3135C62.6529 12.3135 61.1197 12.8474 59.8705 13.7506V12.3135H56.7236V19.902V19.9026V32.5839H59.8705V26.053C61.1197 26.9565 62.6529 27.4904 64.3121 27.4904C68.5031 27.4904 71.9002 24.093 71.9002 19.902C71.9002 15.7106 68.5031 12.3135 64.3121 12.3135Z" fill="#777A8C"/>
<path fill-rule="evenodd" clip-rule="evenodd" d="M166.249 28.8074C162.719 28.792 159.859 25.9074 159.874 22.3769C159.889 18.8465 162.774 15.9864 166.304 16.0015C169.835 16.0165 172.694 18.9014 172.679 22.4322C172.664 25.9626 169.779 28.8224 166.249 28.8074ZM166.318 12.8546C161.044 12.8318 156.75 17.0892 156.727 22.3632C156.704 27.6376 160.961 31.9315 166.236 31.9546C171.51 31.977 175.804 27.72 175.827 22.4456C175.849 17.1716 171.592 12.877 166.318 12.8546Z" fill="#777A8C"/>
<path fill-rule="evenodd" clip-rule="evenodd" d="M188.496 28.9031C184.966 28.8877 182.106 26.0034 182.121 22.4726C182.136 18.9422 185.021 16.0821 188.551 16.0972C192.082 16.1122 194.942 18.9975 194.927 22.5279C194.911 26.0583 192.027 28.9181 188.496 28.9031ZM188.565 12.9503C183.291 12.9275 178.997 17.1849 178.974 22.4592C178.951 27.7333 183.208 32.0272 188.483 32.0503C193.757 32.0727 198.051 27.8157 198.074 22.5413C198.096 17.2673 193.839 12.9727 188.565 12.9503Z" fill="#777A8C"/>
<path fill-rule="evenodd" clip-rule="evenodd" d="M204.4 29.5565L204.474 12.4337L201.327 12.4199L201.253 29.5431L201.239 32.6904L204.386 32.7038L214.488 32.747L214.501 29.6001L204.4 29.5565Z" fill="#777A8C"/>
<path fill-rule="evenodd" clip-rule="evenodd" d="M145.983 24.2118C143.534 24.2011 141.551 22.2002 141.561 19.7514C141.572 17.3023 143.573 15.3185 146.022 15.3289C148.471 15.3396 150.454 17.3405 150.444 19.7896C150.433 22.2384 148.432 24.2222 145.983 24.2118ZM146.035 12.182C144.376 12.1747 142.84 12.7023 141.588 13.6001L141.594 12.1291L138.447 12.1157L138.413 20.0412L138.36 32.352L138.359 32.3855L141.507 32.3989L141.507 32.3654L141.535 25.9025C142.78 26.811 144.311 27.3516 145.97 27.359C150.161 27.3768 153.573 23.994 153.591 19.803C153.609 15.612 150.226 12.2001 146.035 12.182Z" fill="#777A8C"/>
<path fill-rule="evenodd" clip-rule="evenodd" d="M11.9949 45C-2.11851 31.7867 20.5813 23.0729 21.1619 12.3364C34.2317 27.4728 12.6692 34.6211 11.9949 45ZM13.3648 0C27.4782 13.2135 4.77817 21.9273 4.19782 32.6638C-8.8722 17.5272 12.6905 10.3791 13.3648 0Z" fill="#777A8C"/>
</svg>
