<svg width="40" height="40" viewBox="0 0 40 40" fill="none" xmlns="http://www.w3.org/2000/svg">
<path d="M9.54102 22.1846C10.6074 22.1846 11.4482 21.3438 11.4482 20.2773C11.4482 19.1904 10.6074 18.3496 9.54102 18.3496C8.47461 18.3496 7.61328 19.1904 7.61328 20.2773C7.61328 21.3438 8.47461 22.1846 9.54102 22.1846Z" fill="white"/>
<path d="M20.5 22.1846C21.5664 22.1846 22.4072 21.3438 22.4072 20.2773C22.4072 19.1904 21.5664 18.3496 20.5 18.3496C19.4336 18.3496 18.5723 19.1904 18.5723 20.2773C18.5723 21.3438 19.4336 22.1846 20.5 22.1846Z" fill="white"/>
<path d="M31.459 22.1846C32.5254 22.1846 33.3662 21.3438 33.3662 20.2773C33.3662 19.1904 32.5254 18.3496 31.459 18.3496C30.3926 18.3496 29.5312 19.1904 29.5312 20.2773C29.5312 21.3438 30.3926 22.1846 31.459 22.1846Z" fill="white"/>
</svg>
