<svg width="145" height="145" viewBox="0 0 145 145" fill="none" xmlns="http://www.w3.org/2000/svg">
<g clip-path="url(#clip0)">
<path d="M77.1733 112.4C71.7319 112.4 67.7603 111.052 65.2583 108.357C62.9407 106.076 61.5957 102.944 61.5174 99.6463C61.4893 98.6444 61.7151 97.6522 62.1727 96.7672C62.5996 96.0025 63.2163 95.368 63.9597 94.9285C64.8238 94.4854 65.7762 94.2548 66.7418 94.2548C67.7074 94.2548 68.6598 94.4854 69.5239 94.9285C70.266 95.3663 70.8798 96.0014 71.3008 96.7672C71.7717 97.6479 72.006 98.6417 71.9796 99.6463C72.0282 100.846 71.6935 102.029 71.0265 103.015C70.4706 103.82 69.676 104.418 68.7619 104.719C69.6558 105.889 70.9207 106.7 72.3362 107.01C73.9199 107.483 75.5601 107.726 77.2092 107.732C79.3926 107.752 81.531 107.095 83.3455 105.846C85.2278 104.479 86.6316 102.524 87.3487 100.272C88.2578 97.5921 88.7014 94.7685 88.6594 91.9303C88.7327 88.9714 88.2471 86.0259 87.2295 83.2571C86.4642 81.0426 85.0113 79.1485 83.0951 77.8671C81.314 76.7083 79.2465 76.1003 77.1388 76.1155C75.3022 76.2755 73.5313 76.8936 71.9796 77.9163L68.1539 79.8883V77.9163L85.3469 54.2029H61.5174V78.8105C61.4501 80.5863 61.907 82.3414 62.8281 83.8452C63.2737 84.5005 63.8764 85.0264 64.5777 85.3719C65.2791 85.7174 66.0553 85.8708 66.8313 85.8173C68.265 85.7875 69.6516 85.2851 70.7867 84.3841C72.0734 83.4147 73.1931 82.2304 74.0992 80.8805C74.1807 80.6438 74.3312 80.4387 74.53 80.2929C74.6896 80.151 74.8935 80.0728 75.1044 80.0724C75.5184 80.1113 75.9101 80.2825 76.2246 80.5621C76.6228 81.0196 76.8395 81.6141 76.832 82.228C76.786 82.6406 76.7144 83.0498 76.6176 83.453C75.771 85.5596 74.3521 87.3707 72.5305 88.6698C70.8387 89.8468 68.8405 90.4709 66.7978 90.4603C61.6385 90.4603 58.0643 89.4149 56.0752 87.3243C55.0528 86.1687 54.2649 84.8151 53.7575 83.3427C53.2501 81.8703 53.0335 80.3086 53.1203 78.749V54.2029H41V49.6308H53.1768V39.206L50.3889 36.3377V34H58.4787L61.5174 35.6172V49.6308L92.9958 49.5323L96.1297 52.7663L76.8277 72.7078C77.9938 72.2257 79.2218 71.9203 80.4734 71.8013C82.9504 71.9128 85.3672 72.6221 87.5282 73.8718C90.0307 75.0947 92.1397 77.0297 93.6051 79.4474C94.9182 81.494 95.8477 83.7749 96.3456 86.1726C96.755 88.0639 96.9746 89.9934 97.0009 91.9308C97.0137 95.6282 96.1983 99.2789 94.618 102.6C93.1194 105.816 90.597 108.41 87.4689 109.951C84.2668 111.573 80.743 112.411 77.1733 112.4Z" fill="white"/>
</g>
<circle cx="72.5" cy="72.5" r="72.5" fill="white" fill-opacity="0.1"/>
<defs>
<clipPath id="clip0">
<rect width="56" height="78.4" fill="white" transform="translate(41 34)"/>
</clipPath>
</defs>
</svg>
