<svg width="112" height="30" viewBox="0 0 112 30" fill="none" xmlns="http://www.w3.org/2000/svg">
<g clip-path="url(#clip0)">
<path fill-rule="evenodd" clip-rule="evenodd" d="M4.23594 1.65635C4.00726 1.65635 3.82188 1.84173 3.82188 2.07041V4.55478H2V2.07041C2 0.835536 3.00106 -0.165527 4.23594 -0.165527H23.5312C24.7661 -0.165527 25.7672 0.835536 25.7672 2.07041V4.55478H23.9453V2.07041C23.9453 1.84173 23.7599 1.65635 23.5312 1.65635H4.23594Z" fill="white"/>
<path fill-rule="evenodd" clip-rule="evenodd" d="M13.0961 29.4812L13.0961 0.828125L14.918 0.828125L14.918 29.4812H13.0961Z" fill="white"/>
<path d="M35.9201 29.4813C39.2862 29.4813 41.2282 28.4845 42.9545 27.5644L42.264 26.376C40.5378 27.4878 38.5957 28.2162 36.0064 28.2162C30.6551 28.2162 27.1595 24.3058 27.1595 18.9771H43.8176C43.9039 18.4404 43.9039 18.0187 43.9039 17.597C43.9039 11.6165 40.5809 8.28125 35.3159 8.28125C30.2667 8.28125 25.5195 12.3449 25.5195 18.9388C25.5195 25.5326 30.1804 29.4813 35.9201 29.4813ZM27.1595 17.712C27.6342 12.6133 31.2593 9.54635 35.3159 9.54635C39.5883 9.54635 42.3935 12.2299 42.3935 17.712H27.1595Z" fill="white"/>
<path d="M48.209 29.481H64.0262H64.3574C65.0892 29.481 65.6824 28.8877 65.6824 28.156V25.0919H64.0262V27.1908C64.0262 27.5567 63.7296 27.8533 63.3637 27.8533H50.652L64.9785 10.0604V8.77783H51.1902H49.6996C48.9678 8.77783 48.3746 9.37105 48.3746 10.1028V12.9185H49.8652V10.7367C49.8652 10.3708 50.1618 10.0742 50.5277 10.0742H62.8668L48.209 28.2377V29.481Z" fill="white"/>
<path d="M79.2645 29.4813C85.1059 29.4813 90.1129 25.6093 90.1129 18.9388C90.1129 12.1532 85.1059 8.28125 79.2645 8.28125C73.423 8.28125 68.416 12.1532 68.416 18.9388C68.416 25.6093 73.423 29.4813 79.2645 29.4813ZM79.2645 28.2162C74.072 28.2162 70.1777 24.4592 70.1777 18.9388C70.1777 13.38 74.072 9.54635 79.2645 9.54635C84.4569 9.54635 88.3975 13.38 88.3975 18.9388C88.3975 24.4592 84.4569 28.2162 79.2645 28.2162Z" fill="white"/>
<path d="M100.877 29.9781C105.473 29.9781 107.999 27.3102 107.999 24.2498C107.999 20.2086 104.231 19.1885 100.753 17.933C98.1445 16.9914 95.6602 16.0498 95.6602 13.578C95.6602 11.5377 97.3164 9.576 100.919 9.576C103.111 9.576 105.515 10.5172 105.515 11.3453V13.25H107.005V11.2625C107.005 9.576 104.024 8.28125 101.002 8.28125C96.4883 8.28125 94.1281 10.7923 94.1281 13.6564C94.1281 17.2268 97.6891 18.4038 101.002 19.5417C103.569 20.4048 106.467 21.6211 106.467 24.3283C106.467 26.6824 104.604 28.6834 100.96 28.6834C97.7305 28.6834 95.95 26.9144 94.1281 25.4234L93.1758 26.5613C95.1219 28.0914 97.6062 29.9781 100.877 29.9781Z" fill="white"/>
</g>
<defs>
<clipPath id="clip0">
<rect width="112" height="30" fill="white"/>
</clipPath>
</defs>
</svg>
