<svg width="270" height="271" viewBox="0 0 270 271" fill="none" xmlns="http://www.w3.org/2000/svg">
<path fill-rule="evenodd" clip-rule="evenodd" d="M134.803 269C207.981 269 267.303 209.678 267.303 136.5C267.303 63.3223 207.981 4 134.803 4C61.6257 4 2.30347 63.3223 2.30347 136.5C2.30347 209.678 61.6257 269 134.803 269Z" fill="white" stroke="#DDDFEB" stroke-width="1.01779"/>
<path fill-rule="evenodd" clip-rule="evenodd" d="M134.563 226.519C184.412 226.519 224.823 186.109 224.823 136.26C224.823 86.4107 184.412 46 134.563 46C84.7141 46 44.3035 86.4107 44.3035 136.26C44.3035 186.109 84.7141 226.519 134.563 226.519Z" fill="#F6F8FB" stroke="#DDDFEB" stroke-width="1.01779"/>
<path fill-rule="evenodd" clip-rule="evenodd" d="M134.459 190.312C164.369 190.312 188.615 166.065 188.615 136.156C188.615 106.246 164.369 82 134.459 82C104.55 82 80.3035 106.246 80.3035 136.156C80.3035 166.065 104.55 190.312 134.459 190.312Z" fill="white" stroke="#DDDFEB" stroke-width="1.01779"/>
<path d="M133.43 5.42981L133.43 133.545" stroke="#DDDFEA" stroke-width="1.01779"/>
<path d="M26.9171 207.301L133.555 138.05" stroke="#DDDFEA" stroke-width="1.01779"/>
<path d="M136.465 140.189L243.103 209.441" stroke="#DDDFEA" stroke-width="1.01779"/>
<path fill-rule="evenodd" clip-rule="evenodd" d="M134.356 154.104C144.325 154.104 152.407 146.022 152.407 136.052C152.407 126.082 144.325 118 134.356 118C124.386 118 116.304 126.082 116.304 136.052C116.304 146.022 124.386 154.104 134.356 154.104Z" fill="#F6F8FB" stroke="#DDDFEB" stroke-width="1.01779"/>
<path d="M134.843 146.928C135.254 146.928 135.548 146.69 135.724 146.485C135.904 146.276 136.045 146.01 136.16 145.735C136.392 145.178 136.586 144.415 136.743 143.525C137.059 141.734 137.25 139.289 137.25 136.608C137.25 133.926 137.059 131.481 136.743 129.69C136.586 128.801 136.392 128.038 136.16 127.481C136.045 127.205 135.904 126.939 135.724 126.73C135.548 126.526 135.254 126.288 134.843 126.288C134.431 126.288 134.138 126.526 133.961 126.73C133.781 126.939 133.64 127.205 133.525 127.481C133.293 128.038 133.099 128.801 132.942 129.69C132.626 131.481 132.435 133.926 132.435 136.608C132.435 139.289 132.626 141.734 132.942 143.525C133.099 144.415 133.293 145.178 133.525 145.735C133.64 146.01 133.781 146.276 133.961 146.485C134.138 146.69 134.431 146.928 134.843 146.928Z" stroke="#DDDFEA" stroke-width="1.4249"/>
<path d="M126.349 142.47C126.592 142.797 126.954 142.894 127.219 142.919C127.493 142.945 127.793 142.908 128.087 142.845C128.682 142.716 129.424 142.441 130.251 142.063C131.914 141.304 134.044 140.074 136.254 138.556C138.465 137.038 140.367 135.5 141.656 134.232C142.296 133.603 142.811 133.015 143.134 132.51C143.293 132.261 143.431 131.994 143.497 131.725C143.563 131.46 143.584 131.079 143.336 130.745C143.094 130.419 142.731 130.321 142.466 130.296C142.192 130.271 141.893 130.307 141.598 130.371C141.004 130.499 140.261 130.775 139.435 131.152C137.771 131.912 135.642 133.142 133.431 134.66C131.221 136.177 129.318 137.715 128.029 138.983C127.389 139.612 126.874 140.201 126.552 140.705C126.392 140.954 126.255 141.221 126.188 141.49C126.122 141.755 126.102 142.136 126.349 142.47Z" stroke="#DDDFEA" stroke-width="1.4249"/>
<path d="M143.336 142.47C143.583 142.136 143.563 141.756 143.497 141.49C143.43 141.222 143.293 140.954 143.133 140.705C142.811 140.201 142.296 139.613 141.656 138.983C140.367 137.715 138.464 136.177 136.254 134.659C134.043 133.141 131.914 131.911 130.251 131.152C129.424 130.774 128.682 130.498 128.087 130.37C127.793 130.307 127.493 130.27 127.219 130.296C126.954 130.321 126.592 130.418 126.35 130.745C126.102 131.079 126.123 131.46 126.188 131.725C126.255 131.994 126.393 132.261 126.552 132.51C126.874 133.014 127.389 133.603 128.03 134.232C129.318 135.5 131.221 137.038 133.431 138.556C135.642 140.074 137.771 141.304 139.434 142.064C140.261 142.441 141.003 142.717 141.598 142.845C141.893 142.909 142.192 142.945 142.466 142.919C142.731 142.894 143.094 142.797 143.336 142.47Z" stroke="#DDDFEA" stroke-width="1.4249"/>
<path fill-rule="evenodd" clip-rule="evenodd" d="M133.813 7.01731C135.475 7.01731 136.822 5.67029 136.822 4.00866C136.822 2.34702 135.475 1 133.813 1C132.152 1 130.805 2.34702 130.805 4.00866C130.805 5.67029 132.152 7.01731 133.813 7.01731Z" fill="#3151D6" stroke="#FCFCFE" stroke-width="1.01779"/>
<path fill-rule="evenodd" clip-rule="evenodd" d="M245.009 214.017C246.67 214.017 248.017 212.67 248.017 211.009C248.017 209.347 246.67 208 245.009 208C243.347 208 242 209.347 242 211.009C242 212.67 243.347 214.017 245.009 214.017Z" fill="#3151D6" stroke="#FCFCFE" stroke-width="1.01779"/>
<path fill-rule="evenodd" clip-rule="evenodd" d="M24.0087 212.017C25.6703 212.017 27.0173 210.67 27.0173 209.009C27.0173 207.347 25.6703 206 24.0087 206C22.347 206 21 207.347 21 209.009C21 210.67 22.347 212.017 24.0087 212.017Z" fill="#3151D6" stroke="#FCFCFE" stroke-width="1.01779"/>
<path fill-rule="evenodd" clip-rule="evenodd" d="M71.3621 79.3901C76.4562 79.3901 80.5858 75.2605 80.5858 70.1664C80.5858 65.0722 76.4562 60.9426 71.3621 60.9426C66.2679 60.9426 62.1383 65.0722 62.1383 70.1664C62.1383 75.2605 66.2679 79.3901 71.3621 79.3901Z" fill="#6FCDD7"/>
<path fill-rule="evenodd" clip-rule="evenodd" d="M83.852 164.419C86.2884 164.419 88.2634 162.444 88.2634 160.008C88.2634 157.572 86.2884 155.597 83.852 155.597C81.4157 155.597 79.4407 157.572 79.4407 160.008C79.4407 162.444 81.4157 164.419 83.852 164.419Z" fill="#6B73CA"/>
<path fill-rule="evenodd" clip-rule="evenodd" d="M218.368 201.397C222.022 201.397 224.984 198.435 224.984 194.782C224.984 191.128 222.022 188.166 218.368 188.166C214.715 188.166 211.753 191.128 211.753 194.782C211.753 198.435 214.715 201.397 218.368 201.397Z" fill="#4B65D1"/>
<path fill-rule="evenodd" clip-rule="evenodd" d="M126.259 244.144C138.063 244.144 147.632 234.575 147.632 222.771C147.632 210.966 138.063 201.397 126.259 201.397C114.454 201.397 104.885 210.966 104.885 222.771C104.885 234.575 114.454 244.144 126.259 244.144Z" fill="#3151D6"/>
<path fill-rule="evenodd" clip-rule="evenodd" d="M14.63 92.914C21.053 92.914 26.2599 87.707 26.2599 81.284C26.2599 74.861 21.053 69.6541 14.63 69.6541C8.20691 69.6541 3 74.861 3 81.284C3 87.707 8.20691 92.914 14.63 92.914Z" fill="#3191D6"/>
<path fill-rule="evenodd" clip-rule="evenodd" d="M187.76 148.323C194.183 148.323 199.39 143.116 199.39 136.693C199.39 130.27 194.183 125.063 187.76 125.063C181.337 125.063 176.13 130.27 176.13 136.693C176.13 143.116 181.337 148.323 187.76 148.323Z" fill="#0EB1CA"/>
<path fill-rule="evenodd" clip-rule="evenodd" d="M181.562 78.9311C191.308 78.9311 199.208 71.031 199.208 61.2857C199.208 51.5404 191.308 43.6403 181.562 43.6403C171.817 43.6403 163.917 51.5404 163.917 61.2857C163.917 71.031 171.817 78.9311 181.562 78.9311Z" fill="#0994C0"/>
<path fill-rule="evenodd" clip-rule="evenodd" d="M191.267 55.6811C191.909 64.668 186.056 68.9344 180.819 69.4042C175.95 69.8407 171.376 66.897 170.989 62.3499C170.668 58.5948 173.021 56.9881 174.865 56.8229C176.761 56.6527 178.351 57.9417 178.484 59.5077C178.613 61.0137 177.661 61.7021 177 61.7613C176.478 61.8082 175.821 61.4954 175.764 60.8225C175.714 60.243 175.938 60.1649 175.884 59.5484C175.791 58.4534 174.827 58.3285 174.298 58.3761C173.656 58.4337 172.495 59.1756 172.653 61.0137C172.811 62.8686 174.605 64.3285 176.962 64.1173C179.506 63.8892 181.283 61.9253 181.424 59.1764C181.424 59.0305 181.456 58.8864 181.517 58.7547C181.517 58.7547 181.517 58.7518 181.517 58.7506C181.543 58.6959 181.573 58.6434 181.607 58.5936C181.607 58.5911 181.61 58.5882 181.613 58.5853C181.678 58.4907 181.749 58.4013 181.828 58.3182C181.828 58.3157 181.828 58.3157 181.83 58.3157C181.896 58.2423 181.974 58.1631 182.065 58.0781C183.178 57.0379 187.187 54.5795 190.969 55.3424C190.999 55.3487 191.028 55.3583 191.055 55.3712C191.175 55.4275 191.255 55.5453 191.266 55.6794" fill="white"/>
</svg>
