<svg width="35" height="35" viewBox="0 0 35 35" fill="none" xmlns="http://www.w3.org/2000/svg">
<path fill-rule="evenodd" clip-rule="evenodd" d="M17.5 35C27.165 35 35 27.165 35 17.5C35 7.83502 27.165 0 17.5 0C7.83502 0 0 7.83502 0 17.5C0 27.165 7.83502 35 17.5 35Z" fill="#29B550" fill-opacity="0.1"/>
<rect x="12.4912" y="10.2922" width="0.972152" height="2.99321" transform="rotate(-20 12.4912 10.2922)" fill="#29B550"/>
<rect x="17.5908" y="24.3037" width="0.972152" height="2.9932" transform="rotate(-20 17.5908 24.3037)" fill="#29B550"/>
<rect x="15.1553" y="9.32251" width="0.972151" height="2.9932" transform="rotate(-20 15.1553 9.32251)" fill="#29B550"/>
<rect x="20.2549" y="23.334" width="0.972153" height="2.9932" transform="rotate(-20 20.2549 23.334)" fill="#29B550"/>
<path fill-rule="evenodd" clip-rule="evenodd" d="M19.3321 16.711C20.6016 16.4978 21.6353 16.5622 22.4333 16.9042C23.2313 17.2463 23.7936 17.8659 24.1202 18.7632C24.4868 19.7704 24.395 20.7024 23.8448 21.5594C23.2945 22.4163 22.1363 23.1662 20.3699 23.8092L14.0269 26.1178L13.657 25.1015C14.2934 24.8699 14.6785 24.6139 14.8122 24.3337C14.9459 24.0534 14.9028 23.6112 14.6829 23.0069L12.0336 15.7279C11.8203 15.142 11.5766 14.7779 11.3026 14.6357C11.0286 14.4935 10.5615 14.5425 9.90134 14.7828L9.53143 13.7665L14.1294 11.9374L14.7895 11.6972C16.883 10.9352 18.4076 10.6827 19.3633 10.9397C20.3189 11.1968 20.9645 11.7861 21.3 12.7078C21.5532 13.4037 21.5163 14.0841 21.1893 14.7493C20.8622 15.4144 20.2432 16.0683 19.3321 16.711ZM16.1772 17.2579L16.7928 17.0338C17.447 16.7957 17.8775 16.461 18.0842 16.0298C18.291 15.5985 18.2533 14.9953 17.9711 14.2201C17.7601 13.6403 17.4924 13.2193 17.1679 12.9571C16.8435 12.695 16.4985 12.5752 16.1329 12.5977C15.7673 12.6202 15.2633 12.7483 14.621 12.9821L16.1772 17.2579ZM17.8663 21.8999L16.5833 18.3749L17.1632 18.1639C17.7936 17.9344 18.2927 17.8253 18.6605 17.8366C19.0283 17.8479 19.3716 18.0046 19.6904 18.3068C20.0092 18.609 20.2874 19.0867 20.5252 19.7398C20.8229 20.5577 20.9049 21.2226 20.7712 21.7343C20.6376 22.2461 20.2883 22.6048 19.7233 22.8105C19.3605 22.9425 19.0578 22.9853 18.8152 22.9388C18.5727 22.8923 18.385 22.793 18.2521 22.6409C18.1193 22.4887 17.9907 22.2418 17.8663 21.8999Z" fill="#29B550"/>
</svg>
