<svg width="35" height="35" viewBox="0 0 35 35" fill="none" xmlns="http://www.w3.org/2000/svg">
<path fill-rule="evenodd" clip-rule="evenodd" d="M17.5 35C27.165 35 35 27.165 35 17.5C35 7.83502 27.165 -5.61447e-08 17.5 -3.61691e-08C7.83502 -1.61934e-08 1.61934e-08 7.83502 3.61691e-08 17.5C5.61447e-08 27.165 7.83502 35 17.5 35Z" fill="#E6007A" fill-opacity="0.1"/>
<path d="M18.0694 24.3931C17.9142 24.3616 17.7543 24.3612 17.5989 24.3917C17.4435 24.4222 17.2957 24.4831 17.1639 24.571C17.0322 24.6588 16.9191 24.7718 16.8311 24.9035C16.7432 25.0352 16.6821 25.183 16.6515 25.3384C16.6181 25.4937 16.6163 25.6541 16.646 25.8102C16.6757 25.9663 16.7364 26.1148 16.8246 26.247C16.9127 26.3792 17.0264 26.4923 17.1591 26.5798C17.2917 26.6673 17.4405 26.7273 17.5967 26.7562C17.7519 26.7915 17.9127 26.7948 18.0692 26.7659C18.2257 26.7369 18.3746 26.6763 18.5069 26.5879C18.6392 26.4994 18.7521 26.3849 18.8386 26.2513C18.9251 26.1177 18.9835 25.9679 19.0101 25.811C19.0631 25.4993 18.9954 25.1791 18.8206 24.9157C18.6458 24.6523 18.3771 24.4654 18.0694 24.3931Z" fill="#E6007A"/>
<path d="M17.6749 8.18628C15.7742 8.19339 13.9534 8.9516 12.6093 10.2956C11.2653 11.6396 10.5071 13.4605 10.5 15.3612C10.4999 16.1537 10.6276 16.941 10.8781 17.6928C10.968 17.9389 11.1487 18.1412 11.383 18.2584C11.6174 18.3755 11.8876 18.3986 12.1384 18.323C12.3819 18.2305 12.5808 18.0485 12.6946 17.8142C12.8083 17.58 12.8284 17.3112 12.7506 17.0626C12.5375 16.478 12.4426 15.8568 12.4715 15.2351C12.5013 14.2317 12.8222 13.2585 13.3952 12.4341C13.9682 11.6098 14.7686 10.9699 15.6988 10.5923C16.6291 10.2147 17.649 10.1158 18.6344 10.3076C19.6199 10.4994 20.5283 10.9736 21.249 11.6724C21.9698 12.3713 22.4717 13.2647 22.6938 14.2437C22.9158 15.2228 22.8484 16.2453 22.4997 17.1867C22.1509 18.1281 21.536 18.9478 20.7297 19.546C19.9234 20.1441 18.9606 20.4949 17.9585 20.5556C17.9585 20.5556 16.9547 20.6186 16.4506 20.6816C16.2657 20.7077 16.0824 20.7437 15.9014 20.7896C15.8884 20.7994 15.8723 20.8041 15.8561 20.803C15.8399 20.8018 15.8247 20.7948 15.8132 20.7833C15.8017 20.7719 15.7947 20.7566 15.7936 20.7404C15.7924 20.7242 15.7972 20.7081 15.8069 20.6951L15.9644 19.8444L16.9097 15.5637C16.964 15.3089 16.9149 15.0428 16.773 14.8242C16.6312 14.6056 16.4084 14.4522 16.1535 14.3979C15.8986 14.3436 15.6326 14.3928 15.414 14.5346C15.1953 14.6764 15.042 14.8993 14.9877 15.1541C14.9877 15.1541 12.7371 25.6059 12.7371 25.7004C12.7061 25.8265 12.7012 25.9576 12.7226 26.0857C12.7441 26.2138 12.7914 26.3361 12.8618 26.4453C12.9322 26.5544 13.0241 26.648 13.1319 26.7204C13.2397 26.7928 13.3611 26.8424 13.4888 26.8662C13.6152 26.8965 13.7464 26.9008 13.8745 26.8788C14.0026 26.8568 14.1249 26.8089 14.2339 26.7382C14.343 26.6675 14.4365 26.5753 14.5088 26.4673C14.5811 26.3593 14.6307 26.2378 14.6546 26.11C14.6861 25.984 14.9697 24.5976 14.9697 24.5976C15.0741 24.0873 15.3325 23.6213 15.71 23.2624C16.0874 22.9034 16.5658 22.6688 17.0807 22.5901C17.2968 22.5586 18.2105 22.4956 18.2105 22.4956C20.0365 22.3268 21.7285 21.4648 22.9385 20.0869C24.1485 18.709 24.7846 16.9199 24.716 15.0874C24.6474 13.2549 23.8793 11.5183 22.5697 10.2347C21.2601 8.95111 19.5084 8.21806 17.6749 8.18628Z" fill="#1E1E1E"/>
</svg>
