<svg width="35" height="35" viewBox="0 0 35 35" fill="none" xmlns="http://www.w3.org/2000/svg">
<path fill-rule="evenodd" clip-rule="evenodd" d="M17.5 35C27.165 35 35 27.165 35 17.5C35 7.83502 27.165 0 17.5 0C7.83502 0 0 7.83502 0 17.5C0 27.165 7.83502 35 17.5 35Z" fill="#EAECF6"/>
<path d="M25.8135 11.7183C25.4198 11.3649 24.9824 11.0998 24.4576 11.0115C23.8015 10.9231 23.1454 11.3649 22.708 11.6741C22.2707 11.9834 21.3959 12.7786 21.046 13.0879C20.6961 13.3971 19.8213 13.5738 18.378 14.4574C16.9346 15.341 11.3361 18.9636 11.3361 18.9636H12.7794L6.26243 22.3654H6.9185L6 23.0722C6.52486 23.2048 7.04972 23.1164 7.53084 22.8514V23.0722C7.53084 23.0722 15.2725 19.9797 16.7596 20.775L15.8411 21.04C15.9286 21.04 17.372 21.1284 17.372 21.1284C17.4594 21.7469 17.8094 22.3212 18.3342 22.6305C19.209 23.2048 19.2527 23.5582 19.2527 23.5582C19.2527 23.5582 18.8153 23.7349 18.8153 24C19.6464 23.7349 20.5211 23.7349 21.3084 24C21.3084 24 21.2647 23.7349 20.6523 23.5582C20.04 23.2931 19.5151 22.8955 19.1215 22.3212C18.7716 21.8352 18.6404 21.2167 18.8591 20.6424C19.0778 20.0681 19.8213 19.7588 21.3522 18.9636C23.1454 18.0359 23.5828 17.329 23.8015 16.7547C24.0202 16.1804 24.4576 15.1201 24.6325 14.5899C24.8075 14.104 25.1137 13.7064 25.5073 13.3529C25.9884 13.0879 26.5133 12.867 26.9944 12.6903C27.0819 12.7344 26.1196 11.9392 25.8135 11.7183Z" fill="#1E1E1E"/>
</svg>
