<svg width="35" height="35" viewBox="0 0 35 35" fill="none" xmlns="http://www.w3.org/2000/svg">
<path d="M17.5 35C27.165 35 35 27.165 35 17.5C35 7.83502 27.165 0 17.5 0C7.83502 0 0 7.83502 0 17.5C0 27.165 7.83502 35 17.5 35Z" fill="#42C1CA" fill-opacity="0.2"/>
<path d="M17.1805 14.8599C17.5217 13.4262 17.9327 12.1373 18.3693 11.2962C18.5299 10.8944 19.1811 9.93214 19.8957 9.29644C21.0855 8.23695 22.4201 7.96818 23.8099 8.84054L23.6879 9.03409L23.8099 8.84054C24.5189 9.28544 24.8033 9.74317 24.6786 10.1743C24.5868 10.4954 24.2355 10.7522 24.0474 10.7256C23.7723 10.7531 23.4952 10.6981 23.231 10.5036C23.0086 10.3323 22.8371 10.1037 22.7348 9.84224C22.5403 9.38359 22.2853 9.22765 21.9725 9.26434C21.7459 9.29002 21.4827 9.43496 21.3992 9.53219L21.1836 9.77069C21.0161 9.94913 20.8673 10.1443 20.7396 10.3532C20.303 11.0806 19.9003 12.4134 19.3417 15.1755L23.0439 15.7176L22.8403 17.2009L19.083 16.6505L18.9225 17.6265L18.8812 17.8705C18.8592 17.9971 18.8353 18.1347 18.8078 18.2815L22.6018 18.8373L22.3844 20.3188L18.5014 19.7501C18.0529 21.6562 17.4621 23.6991 17.0447 24.5054C16.8833 24.9081 16.2329 25.8685 15.5183 26.5051C14.3286 27.5637 12.9939 27.8334 11.6042 26.961C10.8951 26.5161 10.6108 26.0575 10.7355 25.6263C10.8272 25.3053 11.1786 25.0493 11.3666 25.0759C11.6418 25.0484 11.9188 25.1035 12.183 25.297C12.3867 25.4474 12.5554 25.6658 12.6793 25.9593C12.8737 26.417 13.1288 26.5739 13.4416 26.5372C13.6681 26.5106 13.9314 26.3657 14.0149 26.2684C14.8469 25.342 15.5064 23.5569 16.3402 19.4345L12.638 18.8915L12.8416 17.4082L16.5989 17.9586L16.7604 16.9835C16.796 16.7644 16.8343 16.5458 16.875 16.3276L13.0957 15.7745L13.3122 14.293L17.1805 14.8599Z" fill="#42C1CA"/>
</svg>
