<svg width="35" height="35" viewBox="0 0 35 35" fill="none" xmlns="http://www.w3.org/2000/svg">
<path d="M17.5 35C27.165 35 35 27.165 35 17.5C35 7.83502 27.165 0 17.5 0C7.83502 0 0 7.83502 0 17.5C0 27.165 7.83502 35 17.5 35Z" fill="#2C7DF7" fill-opacity="0.1"/>
<g clip-path="url(#clip0)">
<path d="M18.6893 28C17.2318 28 16.1679 27.639 15.4978 26.9172C14.877 26.3061 14.5167 25.4672 14.4957 24.5838C14.4882 24.3155 14.5487 24.0497 14.6713 23.8126C14.7856 23.6078 14.9508 23.4379 15.1499 23.3201C15.3814 23.2015 15.6365 23.1397 15.8951 23.1397C16.1538 23.1397 16.4089 23.2015 16.6403 23.3201C16.8391 23.4374 17.0035 23.6075 17.1163 23.8126C17.2424 24.0486 17.3052 24.3147 17.2981 24.5838C17.3111 24.9052 17.2215 25.2221 17.0428 25.4862C16.8939 25.7017 16.6811 25.8618 16.4362 25.9426C16.6757 26.256 17.0145 26.4732 17.3936 26.5562C17.8178 26.6829 18.2572 26.748 18.6989 26.7497C19.2837 26.755 19.8565 26.5789 20.3425 26.2445C20.8467 25.8782 21.2228 25.3547 21.4148 24.7515C21.6583 24.0336 21.7772 23.2773 21.7659 22.5171C21.7855 21.7245 21.6555 20.9355 21.3829 20.1939C21.1779 19.6007 20.7887 19.0933 20.2755 18.7501C19.7984 18.4397 19.2446 18.2769 18.68 18.2809C18.1881 18.3238 17.7137 18.4894 17.2981 18.7633L16.2734 19.2915V18.7633L20.8786 12.4115H14.4957V19.0028C14.4777 19.4785 14.6001 19.9486 14.8468 20.3514C14.9662 20.5269 15.1276 20.6678 15.3155 20.7603C15.5033 20.8529 15.7113 20.894 15.9191 20.8796C16.3031 20.8716 16.6745 20.7371 16.9786 20.4958C17.3232 20.2361 17.6231 19.9189 17.8659 19.5573C17.8877 19.4939 17.928 19.4389 17.9813 19.3999C18.024 19.3619 18.0786 19.3409 18.1351 19.3408C18.246 19.3512 18.3509 19.3971 18.4352 19.472C18.5418 19.5945 18.5999 19.7538 18.5979 19.9182C18.5855 20.0287 18.5664 20.1383 18.5404 20.2463C18.3137 20.8106 17.9336 21.2957 17.4457 21.6437C16.9925 21.959 16.4573 22.1261 15.9101 22.1233C14.5282 22.1233 13.5708 21.8433 13.038 21.2833C12.7642 20.9738 12.5531 20.6112 12.4172 20.2168C12.2813 19.8224 12.2233 19.4041 12.2465 18.9863V12.4115H9V11.1868H12.2616V8.39446L11.5149 7.62618V7H13.6818L14.4957 7.43318V11.1868L22.9274 11.1604L23.7669 12.0267L18.5967 17.3682C18.9091 17.239 19.238 17.1572 19.5732 17.1253C20.2367 17.1552 20.8841 17.3452 21.4629 17.6799C22.1332 18.0075 22.6981 18.5258 23.0907 19.1734C23.4424 19.7216 23.6913 20.3326 23.8247 20.9748C23.9344 21.4814 23.9932 21.9982 24.0003 22.5172C24.0037 23.5076 23.7853 24.4854 23.362 25.3751C22.9605 26.2365 22.2849 26.9312 21.447 27.3439C20.5893 27.7784 19.6455 28.003 18.6893 28Z" fill="#2C7DF7"/>
</g>
<defs>
<clipPath id="clip0">
<rect width="15" height="21" fill="white" transform="translate(9 7)"/>
</clipPath>
</defs>
</svg>
