<svg width="24" height="24" viewBox="0 0 24 24" fill="none" xmlns="http://www.w3.org/2000/svg">
<path fill-rule="evenodd" clip-rule="evenodd" d="M15.7879 13.2505C19.1708 13.2505 21.9131 10.5082 21.9131 7.12526C21.9131 3.74237 19.1708 1 15.7879 1C12.405 1 9.6626 3.74237 9.6626 7.12526C9.6626 10.5082 12.405 13.2505 15.7879 13.2505Z" stroke="#43454F" stroke-width="1.3" stroke-linecap="round" stroke-linejoin="round"/>
<path fill-rule="evenodd" clip-rule="evenodd" d="M5.72842 18.5525C7.78757 18.5525 9.45684 16.8833 9.45684 14.8241C9.45684 12.765 7.78757 11.0957 5.72842 11.0957C3.66927 11.0957 2 12.765 2 14.8241C2 16.8833 3.66927 18.5525 5.72842 18.5525Z" stroke="#43454F" stroke-width="1.3" stroke-linecap="round" stroke-linejoin="round"/>
<path fill-rule="evenodd" clip-rule="evenodd" d="M15.6791 22.2567C17.1901 22.2567 18.4149 21.0319 18.4149 19.5209C18.4149 18.01 17.1901 16.7852 15.6791 16.7852C14.1682 16.7852 12.9434 18.01 12.9434 19.5209C12.9434 21.0319 14.1682 22.2567 15.6791 22.2567Z" stroke="#43454F" stroke-width="1.3" stroke-linecap="round" stroke-linejoin="round"/>
</svg>
