<svg width="35" height="35" viewBox="0 0 35 35" fill="none" xmlns="http://www.w3.org/2000/svg">
<path opacity="0.2" fill-rule="evenodd" clip-rule="evenodd" d="M17.5 35C27.165 35 35 27.165 35 17.5C35 7.83502 27.165 0 17.5 0C7.83502 0 0 7.83502 0 17.5C0 27.165 7.83502 35 17.5 35Z" fill="#FF9E00"/>
<rect x="15" y="9.00024" width="0.999999" height="3" fill="#FF9E00"/>
<rect x="15" y="25.0002" width="0.999999" height="3" fill="#FF9E00"/>
<rect x="18" y="9.00024" width="1" height="3" fill="#FF9E00"/>
<rect x="18" y="25.0002" width="1" height="3" fill="#FF9E00"/>
<path fill-rule="evenodd" clip-rule="evenodd" d="M19.9355 17.9592C21.2376 18.1936 22.2142 18.6086 22.8652 19.2043C23.5163 19.8 23.8418 20.5764 23.8418 21.5334C23.8418 22.6077 23.4251 23.454 22.5918 24.0725C21.7585 24.691 20.375 25.0002 18.4414 25.0002H11.498V23.9163C12.1947 23.9163 12.6569 23.8072 12.8848 23.5891C13.1126 23.371 13.2266 22.9397 13.2266 22.2952V14.5315C13.2266 13.9065 13.1191 13.4801 12.9043 13.2522C12.6895 13.0243 12.2207 12.9104 11.498 12.9104V11.8264L16.5859 11.6799H17.3086C19.6003 11.6799 21.1628 11.9648 21.9961 12.5344C22.8294 13.1041 23.2461 13.8804 23.2461 14.8635C23.2461 15.6057 22.971 16.234 22.4209 16.7483C21.8708 17.2626 21.0423 17.6663 19.9355 17.9592ZM16.6933 17.3928H17.3671C18.0833 17.3928 18.6171 17.2252 18.9687 16.8899C19.3203 16.5546 19.496 15.9736 19.496 15.1467C19.496 14.5282 19.3854 14.04 19.164 13.6819C18.9427 13.3238 18.6513 13.0927 18.29 12.9885C17.9287 12.8844 17.3964 12.8323 16.6933 12.8323V17.3928ZM16.6933 22.344V18.5842H17.3281C18.0182 18.5842 18.539 18.6526 18.8906 18.7893C19.2421 18.926 19.5188 19.1913 19.7206 19.5852C19.9225 19.9791 20.0234 20.5243 20.0234 21.2209C20.0234 22.0933 19.8688 22.7476 19.5595 23.1838C19.2503 23.62 18.7864 23.8381 18.1679 23.8381C17.7708 23.8381 17.4632 23.7747 17.2451 23.6477C17.027 23.5207 16.8805 23.3629 16.8056 23.1741C16.7307 22.9853 16.6933 22.7086 16.6933 22.344Z" fill="#FF9E00"/>
</svg>
