<svg width="35" height="35" viewBox="0 0 35 35" fill="none" xmlns="http://www.w3.org/2000/svg">
<path opacity="0.2" fill-rule="evenodd" clip-rule="evenodd" d="M17.5 35C27.165 35 35 27.165 35 17.5C35 7.83502 27.165 0 17.5 0C7.83502 0 0 7.83502 0 17.5C0 27.165 7.83502 35 17.5 35Z" fill="#161931"/>
<path d="M17.4995 26.7202C17.9003 26.7202 18.1829 26.4881 18.347 26.2977C18.5153 26.1026 18.6444 25.8573 18.7478 25.6095C18.9572 25.1077 19.1299 24.4253 19.2692 23.6358C19.5499 22.045 19.7195 19.8761 19.7195 17.5002C19.7195 15.1244 19.5499 12.9555 19.2692 11.3647C19.1299 10.5752 18.9572 9.89279 18.7478 9.39099C18.6444 9.14316 18.5153 8.89787 18.347 8.70274C18.1829 8.51236 17.9003 8.28028 17.4995 8.28028C17.0988 8.28028 16.8162 8.51236 16.652 8.70274C16.4837 8.89787 16.3546 9.14316 16.2512 9.39099C16.0418 9.89279 15.8692 10.5752 15.7298 11.3647C15.4491 12.9555 15.2795 15.1244 15.2795 17.5002C15.2795 19.8761 15.4491 22.045 15.7298 23.6358C15.8692 24.4253 16.0418 25.1077 16.2512 25.6095C16.3546 25.8573 16.4837 26.1026 16.652 26.2977C16.8162 26.4881 17.0988 26.7202 17.4995 26.7202Z" stroke="#161931" stroke-width="1.43993"/>
<path d="M9.91356 22.7402C10.1494 23.0585 10.5003 23.15 10.7466 23.1733C11.0019 23.1974 11.2769 23.163 11.5416 23.1059C12.0771 22.9905 12.7407 22.7437 13.4744 22.4086C14.952 21.7339 16.8405 20.6427 18.7993 19.2978C20.7579 17.9531 22.4454 16.5892 23.5905 15.4629C24.1585 14.9041 24.6197 14.3781 24.9103 13.9238C25.0537 13.6997 25.1814 13.4537 25.2435 13.2026C25.3049 12.9546 25.3272 12.5863 25.0857 12.2605C24.8499 11.9423 24.499 11.8507 24.2527 11.8275C23.9973 11.8034 23.7223 11.8378 23.4576 11.8948C22.9221 12.0102 22.2585 12.2571 21.5249 12.5921C20.0473 13.2668 18.1588 14.358 16.2 15.7029C14.2414 17.0476 12.5539 18.4115 11.4088 19.5378C10.8407 20.0966 10.3796 20.6226 10.0889 21.0769C9.94557 21.3011 9.81789 21.5471 9.75572 21.7982C9.69433 22.0461 9.67209 22.4144 9.91356 22.7402Z" stroke="#161931" stroke-width="1.43993"/>
<path d="M25.0853 22.7403C25.3267 22.4145 25.3044 22.0462 25.243 21.7983C25.1808 21.5472 25.0532 21.3012 24.9098 21.077C24.6191 20.6227 24.158 20.0966 23.5899 19.5378C22.4449 18.4114 20.7574 17.0474 18.7989 15.7025C16.8402 14.3576 14.9518 13.2663 13.4743 12.5915C12.7407 12.2565 12.0771 12.0096 11.5416 11.8942C11.2769 11.8371 11.0019 11.8028 10.7466 11.8269C10.5003 11.8501 10.1493 11.9417 9.91355 12.26C9.67217 12.5859 9.69446 12.9541 9.75585 13.202C9.81803 13.4532 9.9457 13.6992 10.0891 13.9233C10.3797 14.3777 10.8408 14.9037 11.4089 15.4626C12.554 16.589 14.2414 17.953 16.2 19.2978C18.1587 20.6428 20.0471 21.7341 21.5246 22.4089C22.2582 22.7439 22.9218 22.9908 23.4572 23.1062C23.7219 23.1632 23.9969 23.1976 24.2523 23.1735C24.4986 23.1503 24.8495 23.0586 25.0853 22.7403Z" stroke="#161931" stroke-width="1.43993"/>
</svg>
