<svg width="24" height="24" viewBox="0 0 24 24" fill="none" xmlns="http://www.w3.org/2000/svg">
<path d="M19.6361 4.72258C18.1907 4.06083 16.6648 3.59136 15.0973 3.32617C14.8828 3.7096 14.6888 4.1041 14.5159 4.50802C12.8463 4.25642 11.1484 4.25642 9.47881 4.50802C9.30587 4.10414 9.1118 3.70965 8.8974 3.32617C7.32897 3.5936 5.80205 4.06419 4.35518 4.72604C1.48276 8.97584 0.70409 13.1201 1.09342 17.2055C2.77558 18.4483 4.6584 19.3936 6.66003 20C7.11074 19.3939 7.50956 18.7508 7.85226 18.0776C7.20135 17.8345 6.57311 17.5346 5.9748 17.1813C6.13227 17.0671 6.28627 16.9494 6.43508 16.8352C8.17601 17.6539 10.0761 18.0784 12 18.0784C13.9238 18.0784 15.8239 17.6539 17.5648 16.8352C17.7154 16.958 17.8694 17.0757 18.0251 17.1813C17.4257 17.5351 16.7963 17.8356 16.1442 18.0793C16.4865 18.7522 16.8853 19.3947 17.3364 20C19.3398 19.396 21.224 18.4512 22.9065 17.2072C23.3633 12.4695 22.1261 8.36329 19.6361 4.72258ZM8.34541 14.693C7.26047 14.693 6.36414 13.7084 6.36414 12.4971C6.36414 11.2859 7.22932 10.2927 8.34195 10.2927C9.45458 10.2927 10.344 11.2859 10.325 12.4971C10.3059 13.7084 9.45112 14.693 8.34541 14.693ZM15.6545 14.693C14.5678 14.693 13.675 13.7084 13.675 12.4971C13.675 11.2859 14.5401 10.2927 15.6545 10.2927C16.7689 10.2927 17.6514 11.2859 17.6323 12.4971C17.6133 13.7084 16.7602 14.693 15.6545 14.693Z" fill="#43454E"/>
</svg>
