<svg width="71" height="72" viewBox="0 0 71 72" fill="none" xmlns="http://www.w3.org/2000/svg">
<path d="M62.7159 42.9051C62.208 44.0478 60.6851 46.5704 60.5508 47.7481C58.9076 62.1653 47.5067 70.9998 33.6869 70.9998C22.0264 70.9998 12.0881 65.529 8.27993 54.6253C8.01431 53.8648 4.81206 57.481 3.79856 57.998C2.78506 58.515 0.764226 57.3235 1.77602 54.9626C2.78782 52.6018 6.61954 45.17 6.61954 44.1049C6.61954 30.2594 18.738 17.21 33.6869 17.21C46.0164 17.21 56.4206 26.6362 59.688 37.2549C59.9347 38.0565 64.7052 32.1384 64.8683 32.95C65.6755 33.2191 66.782 34.4976 65.9445 36.4477C64.7481 39.2338 63.7921 40.4836 62.7159 42.9051Z" fill="white" stroke="#1F272C" stroke-width="1.22311" stroke-linecap="round" stroke-linejoin="round"/>
<circle cx="20.467" cy="32.9768" r="5.38114" stroke="#1F272C" stroke-width="1.22311" stroke-linecap="round" stroke-linejoin="round"/>
<circle cx="47.0178" cy="32.9768" r="5.38114" stroke="#1F272C" stroke-width="1.22311" stroke-linecap="round" stroke-linejoin="round"/>
<circle cx="45.164" cy="32.9209" r="2.24124" fill="#1F272C"/>
<circle cx="22.2296" cy="32.9209" r="2.24124" fill="#1F272C"/>
<path d="M37.1356 11.8324C34.6125 12.0628 32.1542 12.7539 29.8816 13.8715C29.4685 14.0739 29.0586 14.2851 28.6459 14.5023C29.0485 12.4512 29.4521 10.3999 29.8567 8.34871C29.867 8.31248 29.8807 8.2773 29.8975 8.24364C30.6122 7.94898 31.3111 7.62514 32.0451 7.37737C33.232 6.97388 34.4519 6.67473 35.691 6.48331C35.9253 7.12286 36.063 7.78909 36.2416 8.44517C36.5349 9.52197 36.8223 10.5989 37.1128 11.6818C37.1229 11.7315 37.1305 11.7818 37.1356 11.8324Z" fill="#1F272C"/>
<path d="M14.0163 63.9311C14.0163 63.9311 15.8997 62.8152 17.1224 61.7389C17.8512 61.0974 21.5143 56.7924 24.3543 53.4195C26.5602 50.7998 29.8056 49.2769 33.2303 49.2769V49.2769C36.5852 49.2769 39.7719 50.7353 41.9628 53.2761C44.9888 56.7854 49.015 61.4552 49.7212 62.2771C50.8771 63.6223 53.0296 63.9311 53.0296 63.9311" stroke="#1F272C" stroke-width="1.22311"/>
<path d="M28.5224 17.1418L31.2365 2.81532C31.2365 2.81532 31.7744 1.47002 32.8506 1.47002C33.9269 1.47002 34.465 2.81532 34.465 2.81532L39.0295 17.1418" stroke="#1F272C" stroke-width="1.22311" stroke-linecap="round" stroke-linejoin="round"/>
<path d="M16.3332 43.5633L14.4384 43.6211C14.3262 43.6365 14.212 43.6284 14.1029 43.5972C13.9938 43.566 13.8923 43.5125 13.8047 43.44C13.7171 43.3675 13.6454 43.2775 13.594 43.1758C13.5427 43.0741 13.5128 42.9629 13.5063 42.8492C13.4998 42.7355 13.5169 42.6217 13.5564 42.5151C13.5959 42.4085 13.6569 42.3113 13.7357 42.2298C13.8145 42.1482 13.9094 42.084 14.0142 42.0412C14.1191 41.9984 14.2317 41.9779 14.345 41.9811C15.6494 41.9293 16.9533 41.8896 18.2566 41.8618C18.4733 41.8616 18.6815 41.9479 18.8354 42.1017C18.9893 42.2556 19.0763 42.4644 19.0772 42.6822C19.0781 42.9 18.9929 43.109 18.8404 43.2632C18.6878 43.4174 18.4804 43.5042 18.2636 43.5044L16.3332 43.5633Z" fill="#C4C9D9"/>
<path d="M50.2173 43.0292L48.2749 43.0884C48.1678 43.0948 48.0605 43.08 47.959 43.0447C47.8575 43.0094 47.7638 42.9544 47.6833 42.8828C47.6028 42.8112 47.5371 42.7245 47.4899 42.6275C47.4427 42.5304 47.415 42.4251 47.4082 42.3174C47.4015 42.2098 47.416 42.1019 47.4507 42C47.4855 41.898 47.5399 41.8041 47.6109 41.7234C47.6819 41.6427 47.768 41.577 47.8644 41.5298C47.9607 41.4827 48.0654 41.4552 48.1725 41.4487C49.4947 41.3925 50.8175 41.3521 52.1407 41.3278C52.251 41.3244 52.3608 41.3441 52.4632 41.3857C52.5655 41.4272 52.6583 41.4896 52.7355 41.569C52.8128 41.6484 52.8728 41.743 52.9118 41.8468C52.9508 41.9507 52.968 42.0614 52.9622 42.1721C52.9604 42.28 52.9374 42.3863 52.8943 42.485C52.8512 42.5837 52.789 42.6726 52.7112 42.7467C52.6334 42.8208 52.5417 42.8786 52.4414 42.9166C52.341 42.9545 52.2341 42.972 52.1269 42.968L50.2173 43.0292Z" fill="#C4C9D9"/>
<path d="M26.1208 41.134C26.1208 41.134 25.1087 43.1576 27.1329 43.1576C29.157 43.1576 29.829 42.1458 34.2134 42.1458C38.5979 42.1458 38.2613 43.1576 40.6219 42.8203C42.9824 42.4831 41.6337 40.4595 41.6337 40.4595" stroke="#1F272C" stroke-width="1.27255" stroke-linecap="round" stroke-linejoin="round"/>
<path d="M37.7005 29.5094C37.7005 28.1037 38.84 26.9678 40.2456 26.9678H67.3402C68.7458 26.9678 69.8853 28.1001 69.8853 29.5057C69.8853 34.771 69.8853 46.7212 69.8853 50.6829C69.8853 55.8212 52.7871 64.5167 52.7871 64.5167C52.7871 64.5167 37.7006 54.6354 37.7005 50.6829C37.7005 47.6095 37.7005 34.9768 37.7005 29.5094Z" fill="#FFF4DB" stroke="#1F272C" stroke-width="1.22311" stroke-linecap="round" stroke-linejoin="round"/>
<path d="M40.272 31.1528C40.272 30.2597 40.9961 29.5386 41.8892 29.5386H65.2283C66.1215 29.5386 66.8455 30.2565 66.8455 31.1496C66.8455 35.2645 66.8455 46.0824 66.8455 49.5702C66.8455 53.9104 53.1302 61.2553 53.1302 61.2553C53.1302 61.2553 40.2721 52.9088 40.272 49.5702C40.272 46.8685 40.272 35.4221 40.272 31.1528Z" fill="#FFF4DB" stroke="#1F272C" stroke-width="0.80859" stroke-linecap="round" stroke-linejoin="round"/>
<path d="M53.5162 47.8047V44.0194C52.3358 43.6821 51.4685 43.1732 50.9144 42.4927C50.3664 41.8061 50.0923 40.9749 50.0923 39.9992C50.0923 39.0115 50.4025 38.1834 51.0228 37.5149C51.6492 36.8403 52.4803 36.4518 53.5162 36.3495V35.4551H54.8262V36.3495C55.7838 36.4639 56.5457 36.7921 57.1118 37.3342C57.678 37.8702 58.0393 38.5899 58.1959 39.4933L55.9103 39.7915C55.7718 39.0808 55.4104 38.5989 54.8262 38.346V41.8783C56.2717 42.2698 57.2564 42.7787 57.7804 43.4051C58.3043 44.0254 58.5663 44.8235 58.5663 45.7991C58.5663 46.8893 58.2351 47.8077 57.5726 48.5545C56.9161 49.3014 56.0006 49.7591 54.8262 49.9277V51.6171H53.5162V49.9729C52.4743 49.8464 51.6281 49.458 50.9777 48.8075C50.3272 48.157 49.9116 47.2386 49.731 46.0521L52.0889 45.7991C52.1852 46.281 52.3659 46.6965 52.6309 47.0458C52.8959 47.3952 53.191 47.6481 53.5162 47.8047ZM53.5162 38.3189C53.1609 38.4393 52.8778 38.6441 52.667 38.9332C52.4562 39.2223 52.3508 39.5415 52.3508 39.8908C52.3508 40.21 52.4472 40.5082 52.6399 40.7852C52.8327 41.0562 53.1248 41.2761 53.5162 41.4447V38.3189ZM54.8262 47.9312C55.2779 47.8469 55.6453 47.6391 55.9284 47.3078C56.2114 46.9706 56.353 46.5761 56.353 46.1244C56.353 45.7208 56.2325 45.3745 55.9916 45.0854C55.7567 44.7903 55.3682 44.5645 54.8262 44.4079V47.9312Z" fill="#C1B69B"/>
</svg>
