<svg width="54" height="54" viewBox="0 0 54 54" fill="none" xmlns="http://www.w3.org/2000/svg">
<g clip-path="url(#clip0)">
<path d="M19.1104 19.0759C16.4869 19.2594 13.7981 21.1651 14.1221 25.7989C14.5144 31.4085 20.2007 35.1395 26.3305 34.7108C32.9241 34.2498 40.3729 29.1239 39.7529 18.0364C39.7444 17.8694 39.6415 17.7248 39.4938 17.6519C39.4598 17.6358 39.4242 17.6227 39.3862 17.6143C34.6483 16.5894 30.7438 19.5289 29.3223 20.7856C29.2069 20.8878 29.107 20.9839 29.0191 21.0761C28.9036 21.1937 28.814 21.3018 28.7367 21.4106C28.6882 21.4783 28.6504 21.542 28.6186 21.6068C28.5165 21.805 28.5042 21.9681 28.4935 22.1244C28.2582 25.5079 24.8925 29.4465 21.6902 29.6704C15.592 30.0968 14.3281 26.313 14.168 24.0242C14.784 19.4694 18.3047 19.1322 19.1104 19.0759ZM19.1104 19.0759C21.4978 18.909 23.4687 20.5326 23.6039 22.4649C23.7338 24.3235 22.5227 25.1504 21.6902 25.2086C21.0328 25.2546 20.2142 24.8546 20.1561 24.0242C20.1061 23.3091 20.2795 22.6658 20.3353 22.4585C20.9884 20.0317 19.7758 19.0294 19.1104 19.0759Z" stroke="#43454F" stroke-width="2"/>
</g>
<path opacity="0.4" d="M51.1692 31.6727C49.0638 37.4402 44.711 42.0708 39.1368 44.4733C37.5912 45.183 36.0096 45.8091 34.3989 46.3491C33.0597 46.7716 32.5727 47.3797 33.2829 48.5753C33.5467 49.0287 34.1655 50.3273 34.7235 51.3374C34.8177 51.5189 34.8137 51.7369 34.7128 51.9147C34.6119 52.0925 34.4283 52.2053 34.2264 52.2134C24.6391 52.3783 15.9648 49.3173 10.3544 44.4527C-1.60702 34.0535 -0.917134 16.7283 11.5718 6.93723C21.1998 -0.586472 37.2193 0.114366 45.8733 9.09128C51.6301 15.035 53.6694 23.7306 51.1692 31.6727Z" stroke="#43454F" stroke-width="2"/>
<defs>
<clipPath id="clip0">
<path d="M12.4619 10.0879H40.9454V38.5714H12.4619V10.0879Z" fill="white"/>
</clipPath>
</defs>
</svg>
