<svg width="90" height="90" viewBox="0 0 90 90" fill="none" xmlns="http://www.w3.org/2000/svg">
<g opacity="0.1">
<path d="M87.7325 16.5195C90.5714 54.9492 65.8662 73.1123 43.7203 75.0498C23.132 76.851 3.75267 64.2001 2.05198 44.7611C0.647117 28.7034 10.575 21.866 18.3728 21.1838C26.3915 20.4823 33.1309 26.0136 33.7167 32.7095C34.2802 39.15 30.2629 42.0807 27.4666 42.3254C25.2588 42.5185 22.4782 41.1731 22.2264 38.2953C22.0096 35.8173 22.9527 35.4841 22.7227 32.8551C22.3131 28.1733 18.2338 27.6264 15.9989 27.822C13.2927 28.0587 8.38439 31.2149 9.07219 39.0766C9.76612 47.0082 17.3702 53.2742 27.3392 52.4021C38.095 51.4611 45.5864 43.0875 46.1478 31.3385C46.1732 30.7956 46.2036 30.2295 46.5336 29.5365C46.5331 29.5307 46.5383 29.525 46.5379 29.5198C46.6362 29.3101 46.7588 29.0872 46.9175 28.85C46.9165 28.8389 46.9269 28.8276 46.9404 28.8147C47.1701 28.4687 47.4642 28.0891 47.8446 27.6751C47.85 27.6642 47.85 27.6642 47.855 27.6638C48.1339 27.3507 48.4633 27.0124 48.8446 26.6519C53.5404 22.2195 70.4649 11.7617 86.4702 15.0739C86.5988 15.1012 86.7193 15.1449 86.835 15.1987L86.8394 15.1983C87.3365 15.4441 87.6926 15.9406 87.7325 16.5195Z" fill="url(#paint0_linear)"/>
<path d="M87.7325 16.5195C90.5714 54.9492 65.8662 73.1123 43.7203 75.0498C23.132 76.851 3.75267 64.2001 2.05198 44.7611C0.647117 28.7034 10.575 21.866 18.3728 21.1838C26.3915 20.4823 33.1309 26.0136 33.7167 32.7095C34.2802 39.15 30.2629 42.0807 27.4666 42.3254C25.2588 42.5185 22.4782 41.1731 22.2264 38.2953C22.0096 35.8173 22.9527 35.4841 22.7227 32.8551C22.3131 28.1733 18.2338 27.6264 15.9989 27.822C13.2927 28.0587 8.38439 31.2149 9.07219 39.0766C9.76612 47.0082 17.3702 53.2742 27.3392 52.4021C38.095 51.4611 45.5864 43.0875 46.1478 31.3385C46.1732 30.7956 46.2036 30.2295 46.5336 29.5365C46.5331 29.5307 46.5383 29.525 46.5379 29.5198C46.6362 29.3101 46.7588 29.0872 46.9175 28.85C46.9165 28.8389 46.9269 28.8276 46.9404 28.8147C47.1701 28.4687 47.4642 28.0891 47.8446 27.6751C47.85 27.6642 47.85 27.6642 47.855 27.6638C48.1339 27.3507 48.4633 27.0124 48.8446 26.6519C53.5404 22.2195 70.4649 11.7617 86.4702 15.0739C86.5988 15.1012 86.7193 15.1449 86.835 15.1987L86.8394 15.1983C87.3365 15.4441 87.6926 15.9406 87.7325 16.5195Z" fill="#0CA7C7"/>
</g>
<defs>
<linearGradient id="paint0_linear" x1="39.2462" y1="-10.1667" x2="-9.57657" y2="73.3459" gradientUnits="userSpaceOnUse">
<stop stop-color="#11C4D1"/>
<stop offset="1" stop-color="#0062AD"/>
</linearGradient>
</defs>
</svg>
