<svg width="80" height="80" viewBox="0 0 80 80" fill="none" xmlns="http://www.w3.org/2000/svg">
<path d="M40 80C62.0914 80 80 62.0914 80 40C80 17.9086 62.0914 0 40 0C17.9086 0 0 17.9086 0 40C0 62.0914 17.9086 80 40 80Z" fill="#FAFBFC"/>
<path d="M79.5 40C79.5 61.8152 61.8152 79.5 40 79.5C18.1848 79.5 0.5 61.8152 0.5 40C0.5 18.1848 18.1848 0.5 40 0.5C61.8152 0.5 79.5 18.1848 79.5 40Z" stroke="black" stroke-opacity="0.1"/>
<circle cx="27" cy="42" r="3" fill="#E1E2E3"/>
<circle cx="42" cy="42" r="3" fill="#E1E2E3"/>
<circle cx="57" cy="42" r="3" fill="#E1E2E3"/>
</svg>
